<svg xmlns="http://www.w3.org/2000/svg" viewBox="0 0 84 21">
  <title>Artboard 1</title>
  <g>
    <rect width="84" height="21.00006" fill="#ea4c33"/>
    <g>
      <path d="M11.66553,6.97168v.96289H8.78076V9.86035h2.43457v.96777H8.78076v2.65039H7.56152V6.97168Z" fill="#fff"/>
      <path d="M13.90137,7.51563a.6394.6394,0,0,1-.05811.27051.73029.73029,0,0,1-.38281.37109.70261.70261,0,0,1-.27881.05664.67735.67735,0,0,1-.27246-.05664.72213.72213,0,0,1-.22266-.15039.73836.73836,0,0,1-.15088-.2207.65314.65314,0,0,1-.05615-.27051.69325.69325,0,0,1,.05615-.27832.70171.70171,0,0,1,.37354-.376.67735.67735,0,0,1,.27246-.05664.70261.70261,0,0,1,.27881.05664.75085.75085,0,0,1,.22754.15039.73719.73719,0,0,1,.15527.22559A.67852.67852,0,0,1,13.90137,7.51563Zm-.1665,1.3457v4.61719H12.62354V8.86133Z" fill="#fff"/>
      <path d="M14.99072,13.47852V8.86133h.6792a.273.273,0,0,1,.28369.20313l.07617.36426a2.5,2.5,0,0,1,.29492-.26074,2.08928,2.08928,0,0,1,.32861-.20312,1.6522,1.6522,0,0,1,.37109-.12988,1.92961,1.92961,0,0,1,.43213-.0459A1.647,1.647,0,0,1,18.127,8.918a1.32019,1.32019,0,0,1,.48828.35938,1.596,1.596,0,0,1,.29688.55371,2.35982,2.35982,0,0,1,.10156.709v2.93848H17.90186V10.54a.982.982,0,0,0-.1958-.6543.723.723,0,0,0-.58691-.23242,1.1577,1.1577,0,0,0-.54.13086,1.92222,1.92222,0,0,0-.47705.35547v3.33887Z" fill="#fff"/>
      <path d="M23.356,13.47852a.273.273,0,0,1-.2832-.20215l-.08984-.44629a2.74115,2.74115,0,0,1-.30176.293,1.87924,1.87924,0,0,1-.33984.22461,1.7316,1.7316,0,0,1-.3916.14648,1.893,1.893,0,0,1-.45215.05176,1.53357,1.53357,0,0,1-.69287-.15723,1.55686,1.55686,0,0,1-.54248-.457,2.18958,2.18958,0,0,1-.35059-.74023,3.73574,3.73574,0,0,1-.124-1.00781,3.14056,3.14056,0,0,1,.13965-.9541,2.31694,2.31694,0,0,1,.40039-.76465,1.8645,1.8645,0,0,1,.62549-.50684,1.81161,1.81161,0,0,1,.81885-.18164,1.61016,1.61016,0,0,1,.66162.123,1.75119,1.75119,0,0,1,.49072.33105V6.792h1.11133v6.68652Zm-1.48047-.81445a1.13221,1.13221,0,0,0,.58984-.14453,1.75486,1.75486,0,0,0,.459-.40918V10.04a1.0905,1.0905,0,0,0-.41211-.32324,1.205,1.205,0,0,0-.479-.09473,1.06836,1.06836,0,0,0-.45654.09473A.88922.88922,0,0,0,21.23,10.002a1.39866,1.39866,0,0,0-.21826.48633,2.77824,2.77824,0,0,0-.07666.69531,3.09342,3.09342,0,0,0,.06543.68652,1.35487,1.35487,0,0,0,.18652.459.70733.70733,0,0,0,.29736.25586A.93923.93923,0,0,0,21.87549,12.66406Z" fill="#fff"/>
      <path d="M31.14111,6.97168v.96289H28.25635V9.86035h2.43457v.96777H28.25635v2.65039H27.03711V6.97168Z" fill="#fff"/>
      <path d="M31.7666,13.47852V8.86133h.65234a.34924.34924,0,0,1,.23828.06348.36147.36147,0,0,1,.09033.21582l.06738.55762a2.18982,2.18982,0,0,1,.58057-.6748,1.21965,1.21965,0,0,1,.74707-.24707.96347.96347,0,0,1,.56689.15723l-.144.832a.17356.17356,0,0,1-.05859.11523.19745.19745,0,0,1-.12158.0332.7341.7341,0,0,1-.18457-.03125,1.2561,1.2561,0,0,0-.31055-.03125.93959.93959,0,0,0-.59375.19141,1.46964,1.46964,0,0,0-.41846.55957v2.876Z" fill="#fff"/>
      <path d="M37.35107,8.78906a2.24708,2.24708,0,0,1,.80322.13965,1.78054,1.78054,0,0,1,.63232.40723,1.86622,1.86622,0,0,1,.41406.65723,2.479,2.479,0,0,1,.14844.88867,1.62722,1.62722,0,0,1-.01123.209.331.331,0,0,1-.04053.13086.16707.16707,0,0,1-.07861.06738.33323.33323,0,0,1-.126.02051h-2.853a1.58747,1.58747,0,0,0,.38232,1.04395,1.19383,1.19383,0,0,0,.88184.333,1.4965,1.4965,0,0,0,.46582-.06348,2.20253,2.20253,0,0,0,.34229-.13867c.09717-.05176.18262-.09766.25635-.13965a.43141.43141,0,0,1,.21387-.06348.23308.23308,0,0,1,.1167.02734.254.254,0,0,1,.08594.07617l.32373.40527a1.86225,1.86225,0,0,1-.41406.3623,2.31418,2.31418,0,0,1-.479.23438,2.63757,2.63757,0,0,1-.50879.123,3.57661,3.57661,0,0,1-.50146.03613,2.46578,2.46578,0,0,1-.89551-.15918,2.00928,2.00928,0,0,1-.72021-.47266,2.22322,2.22322,0,0,1-.48145-.77441,2.99221,2.99221,0,0,1-.17529-1.06836,2.55167,2.55167,0,0,1,.15283-.88867,2.1297,2.1297,0,0,1,.439-.72461,2.05872,2.05872,0,0,1,.69727-.48828A2.29432,2.29432,0,0,1,37.35107,8.78906Zm.02246.79688a1.02854,1.02854,0,0,0-.76025.27441,1.35348,1.35348,0,0,0-.35107.77832H38.3501a1.38709,1.38709,0,0,0-.05859-.40723.94739.94739,0,0,0-.17969-.335.85857.85857,0,0,0-.30615-.22754A1.056,1.056,0,0,0,37.37354,9.58594Z" fill="#fff"/>
      <path d="M42.16113,8.78906a2.24708,2.24708,0,0,1,.80322.13965,1.78054,1.78054,0,0,1,.63232.40723,1.86622,1.86622,0,0,1,.41406.65723,2.479,2.479,0,0,1,.14844.88867,1.62722,1.62722,0,0,1-.01123.209.331.331,0,0,1-.04053.13086.16707.16707,0,0,1-.07861.06738.33323.33323,0,0,1-.126.02051h-2.853a1.58747,1.58747,0,0,0,.38232,1.04395,1.19383,1.19383,0,0,0,.88184.333,1.4965,1.4965,0,0,0,.46582-.06348,2.20253,2.20253,0,0,0,.34229-.13867c.09717-.05176.18262-.09766.25635-.13965a.43141.43141,0,0,1,.21387-.06348.23308.23308,0,0,1,.1167.02734.254.254,0,0,1,.08594.07617l.32373.40527a1.86225,1.86225,0,0,1-.41406.3623,2.31418,2.31418,0,0,1-.479.23438,2.63757,2.63757,0,0,1-.50879.123,3.57661,3.57661,0,0,1-.50146.03613,2.46578,2.46578,0,0,1-.89551-.15918,2.00928,2.00928,0,0,1-.72021-.47266,2.22322,2.22322,0,0,1-.48145-.77441,2.99221,2.99221,0,0,1-.17529-1.06836,2.55167,2.55167,0,0,1,.15283-.88867,2.1297,2.1297,0,0,1,.439-.72461,2.05872,2.05872,0,0,1,.69727-.48828A2.29432,2.29432,0,0,1,42.16113,8.78906Zm.02246.79688a1.02854,1.02854,0,0,0-.76025.27441,1.35348,1.35348,0,0,0-.35107.77832h2.08789a1.38709,1.38709,0,0,0-.05859-.40723.94739.94739,0,0,0-.17969-.335.85857.85857,0,0,0-.30615-.22754A1.056,1.056,0,0,0,42.18359,9.58594Z" fill="#fff"/>
      <path d="M51.33643,11.94434a.22718.22718,0,0,1,.1709.07617l.47705.51758a2.6141,2.6141,0,0,1-.97412.751,3.34284,3.34284,0,0,1-1.38818.26172,3.27918,3.27918,0,0,1-1.30273-.248,2.87,2.87,0,0,1-.98779-.68848,3.0119,3.0119,0,0,1-.62793-1.05273,3.954,3.954,0,0,1-.21826-1.33691,3.59447,3.59447,0,0,1,.24316-1.34277,3.03556,3.03556,0,0,1,1.73926-1.7373,3.6374,3.6374,0,0,1,1.35693-.24512,3.20619,3.20619,0,0,1,1.2666.23145,2.97532,2.97532,0,0,1,.9292.61426l-.40479.5625a.36942.36942,0,0,1-.09229.09473.25945.25945,0,0,1-.15527.041.35439.35439,0,0,1-.21143-.08105,2.58525,2.58525,0,0,0-.2749-.17578,2.24385,2.24385,0,0,0-.42041-.17578,2.427,2.427,0,0,0-1.48975.0791,1.87466,1.87466,0,0,0-.66162.457,2.10079,2.10079,0,0,0-.43164.72168,2.77713,2.77713,0,0,0-.15527.95605,2.84624,2.84624,0,0,0,.15527.97656,2.15559,2.15559,0,0,0,.42041.7207,1.80869,1.80869,0,0,0,.62549.44727,1.93475,1.93475,0,0,0,.77441.15527,3.28466,3.28466,0,0,0,.44775-.02734,1.86292,1.86292,0,0,0,.36865-.085,1.63621,1.63621,0,0,0,.31982-.15039,2.03886,2.03886,0,0,0,.29932-.22754.40907.40907,0,0,1,.09424-.06543A.23659.23659,0,0,1,51.33643,11.94434Z" fill="#fff"/>
      <path d="M54.01807,6.792v6.68652H52.90674V6.792Z" fill="#fff"/>
      <path d="M58.8916,13.47852h-.49951a.54219.54219,0,0,1-.24756-.04687.30612.30612,0,0,1-.13477-.19141l-.09912-.3291a3.89737,3.89737,0,0,1-.34424.27734,2.10359,2.10359,0,0,1-.34863.2002,1.75956,1.75956,0,0,1-.38281.12109,2.2681,2.2681,0,0,1-.44971.041,1.76447,1.76447,0,0,1-.54-.0791,1.16209,1.16209,0,0,1-.42529-.23633,1.06444,1.06444,0,0,1-.27686-.3916,1.38475,1.38475,0,0,1-.09912-.54395,1.0745,1.0745,0,0,1,.1377-.51562,1.29633,1.29633,0,0,1,.45654-.459,2.90967,2.90967,0,0,1,.85059-.33984,6.06091,6.06091,0,0,1,1.31836-.15332V10.5625a1.02068,1.02068,0,0,0-.1958-.68652.71756.71756,0,0,0-.56934-.22266,1.37455,1.37455,0,0,0-.44971.06348,1.71948,1.71948,0,0,0-.313.1416c-.08838.05273-.16992.09961-.24512.1416a.49955.49955,0,0,1-.24756.06348.31981.31981,0,0,1-.19336-.05859.45029.45029,0,0,1-.13037-.14453l-.20264-.35547a2.74283,2.74283,0,0,1,1.92139-.72852,1.849,1.849,0,0,1,.72217.13281,1.53512,1.53512,0,0,1,.53809.36816,1.59256,1.59256,0,0,1,.335.56543,2.16446,2.16446,0,0,1,.11475.71973Zm-2.16016-.69336a1.44833,1.44833,0,0,0,.31543-.03125,1.17283,1.17283,0,0,0,.272-.09473,1.45132,1.45132,0,0,0,.24756-.15527,2.2408,2.2408,0,0,0,.24072-.21777v-.77832a5.94647,5.94647,0,0,0-.812.083,2.11327,2.11327,0,0,0-.52441.15527.67229.67229,0,0,0-.28125.2207.54942.54942,0,0,0,.08984.69238A.75108.75108,0,0,0,56.73145,12.78516Z" fill="#fff"/>
      <path d="M62.72607,9.76172a.28674.28674,0,0,1-.09424.10059.24609.24609,0,0,1-.12646.0293.39253.39253,0,0,1-.17285-.04492c-.06152-.0293-.13281-.06348-.21387-.10059a1.92217,1.92217,0,0,0-.27686-.10156,1.31454,1.31454,0,0,0-.3667-.04492.85588.85588,0,0,0-.51758.13965.43158.43158,0,0,0-.189.36426.34879.34879,0,0,0,.09668.25.86362.86362,0,0,0,.25684.17773,2.485,2.485,0,0,0,.36182.13672c.13525.041.27295.085.41406.13281s.2793.10352.41406.16406a1.43394,1.43394,0,0,1,.3623.23438,1.09151,1.09151,0,0,1,.25635.33984,1.07717,1.07717,0,0,1,.09717.47656,1.52923,1.52923,0,0,1-.12158.61426,1.35673,1.35673,0,0,1-.35547.48633,1.661,1.661,0,0,1-.57861.31934,2.47518,2.47518,0,0,1-.78955.11523,2.52771,2.52771,0,0,1-.46582-.043,2.76152,2.76152,0,0,1-.43652-.11914,2.42866,2.42866,0,0,1-.38672-.17969,1.88591,1.88591,0,0,1-.313-.22559l.25635-.42285a.37244.37244,0,0,1,.11719-.11719.334.334,0,0,1,.1709-.04.35963.35963,0,0,1,.1958.05859q.09229.05859.21387.126a1.932,1.932,0,0,0,.28564.126,1.25472,1.25472,0,0,0,.4165.05859,1.083,1.083,0,0,0,.33936-.04785.70057.70057,0,0,0,.23438-.124.45872.45872,0,0,0,.13477-.17773.53365.53365,0,0,0,.043-.209.37346.37346,0,0,0-.09717-.26562.853.853,0,0,0-.25635-.17969,2.56826,2.56826,0,0,0-.36426-.1377c-.13672-.04-.27637-.084-.41846-.13281a3.817,3.817,0,0,1-.41846-.168,1.43082,1.43082,0,0,1-.36475-.24512,1.11369,1.11369,0,0,1-.25635-.36523,1.26843,1.26843,0,0,1-.09668-.52148,1.32484,1.32484,0,0,1,.1123-.54A1.26889,1.26889,0,0,1,60.15869,9.21a1.6478,1.6478,0,0,1,.54443-.30566,2.49122,2.49122,0,0,1,1.62256.043,1.95546,1.95546,0,0,1,.65234.41406Z" fill="#fff"/>
      <path d="M66.65869,9.76172a.28674.28674,0,0,1-.09424.10059.24609.24609,0,0,1-.12646.0293.39253.39253,0,0,1-.17285-.04492c-.06152-.0293-.13281-.06348-.21387-.10059a1.92217,1.92217,0,0,0-.27686-.10156,1.31454,1.31454,0,0,0-.3667-.04492.85588.85588,0,0,0-.51758.13965.43158.43158,0,0,0-.189.36426.34879.34879,0,0,0,.09668.25.86362.86362,0,0,0,.25684.17773,2.485,2.485,0,0,0,.36182.13672c.13525.041.27295.085.41406.13281s.2793.10352.41406.16406a1.43394,1.43394,0,0,1,.3623.23438,1.09151,1.09151,0,0,1,.25635.33984,1.07717,1.07717,0,0,1,.09717.47656,1.52923,1.52923,0,0,1-.12158.61426,1.35673,1.35673,0,0,1-.35547.48633,1.661,1.661,0,0,1-.57861.31934,2.47518,2.47518,0,0,1-.78955.11523,2.52771,2.52771,0,0,1-.46582-.043,2.76152,2.76152,0,0,1-.43652-.11914,2.42866,2.42866,0,0,1-.38672-.17969,1.88591,1.88591,0,0,1-.313-.22559l.25635-.42285a.37244.37244,0,0,1,.11719-.11719.334.334,0,0,1,.1709-.04.35963.35963,0,0,1,.1958.05859q.09229.05859.21387.126a1.932,1.932,0,0,0,.28564.126,1.25472,1.25472,0,0,0,.4165.05859,1.083,1.083,0,0,0,.33936-.04785.70057.70057,0,0,0,.23438-.124.45872.45872,0,0,0,.13477-.17773.53365.53365,0,0,0,.043-.209.37346.37346,0,0,0-.09717-.26562.853.853,0,0,0-.25635-.17969,2.56826,2.56826,0,0,0-.36426-.1377c-.13672-.04-.27637-.084-.41846-.13281a3.817,3.817,0,0,1-.41846-.168,1.43082,1.43082,0,0,1-.36475-.24512,1.11369,1.11369,0,0,1-.25635-.36523,1.26843,1.26843,0,0,1-.09668-.52148,1.32484,1.32484,0,0,1,.1123-.54A1.26889,1.26889,0,0,1,64.09131,9.21a1.6478,1.6478,0,0,1,.54443-.30566,2.49122,2.49122,0,0,1,1.62256.043,1.95546,1.95546,0,0,1,.65234.41406Z" fill="#fff"/>
      <path d="M69.75928,8.78906a2.24708,2.24708,0,0,1,.80322.13965,1.78054,1.78054,0,0,1,.63232.40723,1.86622,1.86622,0,0,1,.41406.65723,2.479,2.479,0,0,1,.14844.88867,1.62722,1.62722,0,0,1-.01123.209.331.331,0,0,1-.04053.13086.16707.16707,0,0,1-.07861.06738.33323.33323,0,0,1-.126.02051h-2.853a1.58747,1.58747,0,0,0,.38232,1.04395,1.19383,1.19383,0,0,0,.88184.333,1.4965,1.4965,0,0,0,.46582-.06348,2.20253,2.20253,0,0,0,.34229-.13867c.09717-.05176.18262-.09766.25635-.13965a.43141.43141,0,0,1,.21387-.06348.23308.23308,0,0,1,.1167.02734.254.254,0,0,1,.08594.07617l.32373.40527a1.86225,1.86225,0,0,1-.41406.3623,2.31418,2.31418,0,0,1-.479.23438,2.63757,2.63757,0,0,1-.50879.123,3.57661,3.57661,0,0,1-.50146.03613,2.46578,2.46578,0,0,1-.89551-.15918,2.00928,2.00928,0,0,1-.72021-.47266,2.22322,2.22322,0,0,1-.48145-.77441,2.99221,2.99221,0,0,1-.17529-1.06836,2.55167,2.55167,0,0,1,.15283-.88867,2.1297,2.1297,0,0,1,.439-.72461,2.05872,2.05872,0,0,1,.69727-.48828A2.29432,2.29432,0,0,1,69.75928,8.78906Zm.02246.79688a1.02854,1.02854,0,0,0-.76025.27441,1.35348,1.35348,0,0,0-.35107.77832H70.7583a1.38709,1.38709,0,0,0-.05859-.40723.94739.94739,0,0,0-.17969-.335.85857.85857,0,0,0-.30615-.22754A1.056,1.056,0,0,0,69.78174,9.58594Z" fill="#fff"/>
      <path d="M75.40234,9.76172a.28674.28674,0,0,1-.09424.10059.24609.24609,0,0,1-.12646.0293.39253.39253,0,0,1-.17285-.04492c-.06152-.0293-.13281-.06348-.21387-.10059a1.92217,1.92217,0,0,0-.27686-.10156,1.31454,1.31454,0,0,0-.3667-.04492.85588.85588,0,0,0-.51758.13965.43158.43158,0,0,0-.189.36426.34879.34879,0,0,0,.09668.25.86362.86362,0,0,0,.25684.17773,2.485,2.485,0,0,0,.36182.13672c.13525.041.27295.085.41406.13281s.2793.10352.41406.16406a1.43394,1.43394,0,0,1,.3623.23438,1.09151,1.09151,0,0,1,.25635.33984,1.07717,1.07717,0,0,1,.09717.47656,1.52923,1.52923,0,0,1-.12158.61426,1.35673,1.35673,0,0,1-.35547.48633,1.661,1.661,0,0,1-.57861.31934,2.47518,2.47518,0,0,1-.78955.11523,2.52771,2.52771,0,0,1-.46582-.043,2.76152,2.76152,0,0,1-.43652-.11914,2.42866,2.42866,0,0,1-.38672-.17969,1.88591,1.88591,0,0,1-.313-.22559l.25635-.42285a.37244.37244,0,0,1,.11719-.11719.334.334,0,0,1,.1709-.04.35963.35963,0,0,1,.1958.05859q.09229.05859.21387.126a1.932,1.932,0,0,0,.28564.126,1.25472,1.25472,0,0,0,.4165.05859,1.083,1.083,0,0,0,.33936-.04785.70057.70057,0,0,0,.23438-.124.45872.45872,0,0,0,.13477-.17773.53365.53365,0,0,0,.043-.209.37346.37346,0,0,0-.09717-.26562.853.853,0,0,0-.25635-.17969,2.56826,2.56826,0,0,0-.36426-.1377c-.13672-.04-.27637-.084-.41846-.13281a3.817,3.817,0,0,1-.41846-.168,1.43082,1.43082,0,0,1-.36475-.24512,1.11369,1.11369,0,0,1-.25635-.36523,1.26843,1.26843,0,0,1-.09668-.52148,1.32484,1.32484,0,0,1,.1123-.54A1.26889,1.26889,0,0,1,72.835,9.21a1.6478,1.6478,0,0,1,.54443-.30566,2.49122,2.49122,0,0,1,1.62256.043,1.95546,1.95546,0,0,1,.65234.41406Z" fill="#fff"/>
    </g>
  </g>
</svg>
