<svg xmlns="http://www.w3.org/2000/svg" xmlns:xlink="http://www.w3.org/1999/xlink" viewBox="0 0 300 250">
  <defs>
    <clipPath id="a">
      <rect x="37.42232" y="206.05545" width="91.57768" height="27.47331" fill="none"/>
    </clipPath>
    <clipPath id="c">
      <rect x="5" y="196.74486" width="45.78884" height="45.78884" fill="none"/>
    </clipPath>
  </defs>
  <title>Artboard 1</title>
  <g clip-path="url(#a)">
    <g clip-path="url(#a)">
      <path d="M50.22907,212.32042a.05554.05554,0,0,0-.05775.05825v3.08642l.11422.03828v-3.12471a.05519.05519,0,0,0-.05647-.05825" fill="#fff"/>
      <path d="M49.67764,212.32042a.0555.0555,0,0,0-.05762.05825v3.08642l.11409.03828v-3.12471a.05512.05512,0,0,0-.05647-.05825" fill="#fff"/>
      <path d="M50.83279,212.32042a.0556.0556,0,0,0-.05775.05825v3.08642l.11409.03828v-3.12471a.055.055,0,0,0-.05634-.05825" fill="#fff"/>
      <path d="M51.73977,214.9148l-.00827-2.71261a.14886.14886,0,0,0-.16891-.14907.14276.14276,0,0,0-.16268.14805v2.591a1.33741,1.33741,0,0,1-.6474.34736v.00051a1.78653,1.78653,0,0,1-.25782.04973,2.11666,2.11666,0,0,1-.27588.01857,1.65489,1.65489,0,0,1-.498-.08013l-.00153-.00038v-.00013c-.0393-.01247-.07771-.02557-.11409-.03968v.00153a1.78018,1.78018,0,0,1-.22182-.10137,1.86716,1.86716,0,0,1-.23518-.14881l-.02353-.01793v-2.61251a.151.151,0,0,0-.16586-.15581.15712.15712,0,0,0-.17565.15581s-.02442,2.66873-.02442,2.67636l.0103,11.42355a.18114.18114,0,0,0,.04846.123,1.63295,1.63295,0,0,0,.38081.28275,2.34651,2.34651,0,0,0,1.06968.148,2.28232,2.28232,0,0,0,1.06243-.14729,1.56459,1.56459,0,0,0,.3742-.28351.186.186,0,0,0,.04566-.12045Z" fill="#fff"/>
      <path d="M59.94926,221.05759H58.27389v-4.05066h-.50826v-.97619h2.033c1.90583,0,2.96216.484,2.96216,2.56456,0,1.906-1.19166,2.46229-2.81156,2.46229m.01628-4.05066h-.30208v3.08146h.42113c1.04,0,1.2148-.59576,1.2148-1.58824,0-1.25474-.48435-1.49323-1.33385-1.49323" fill="#fff"/>
      <path d="M65.43687,221.15241a2.62372,2.62372,0,1,1,2.34273-2.605,2.29952,2.29952,0,0,1-2.34273,2.605m0-4.153c-.55621,0-.86554.46031-.86554,1.548,0,1.088.30933,1.54092.86554,1.54092.55544,0,.86528-.45293.86528-1.54092,0-1.08774-.30984-1.548-.86528-1.548" fill="#fff"/>
      <polygon points="71.814 220.08 71.751 221.058 68.312 221.058 68.312 216.031 69.702 216.031 69.702 220.08 71.814 220.08" fill="#fff"/>
      <polygon points="75.751 220.08 75.688 221.058 72.25 221.058 72.25 216.031 73.639 216.031 73.639 220.08 75.751 220.08" fill="#fff"/>
      <path d="M81.00886,221.05758H79.55558l-.302-.92163H77.578l-.27054.92163H75.95034l1.31834-4.05066.27346-.97619H79.1983Zm-2.06508-1.85076-.389-1.207a3.15214,3.15214,0,0,1-.19066-.762H78.3484a3.67271,3.67271,0,0,1-.15886.75412l-.34914,1.21493Z" fill="#fff"/>
      <path d="M85.537,220.16774c-.2058,0-.3251-.07161-.47582-.30984l-.40561-.64282a1.54758,1.54758,0,0,0,.94554-1.54881,1.45719,1.45719,0,0,0-.73847-1.35828,3.232,3.232,0,0,0-1.55657-.27728H81.42326l.001,5.02685h1.38931v-1.66786h.37292l.556.8967a2.15852,2.15852,0,0,0,.54858.6357,1.34927,1.34927,0,0,0,.80194.22246,1.7156,1.7156,0,0,0,.754-.18316l.08763-.91272a.73784.73784,0,0,1-.3976.11905m-2.13617-1.64382h-.58724v-1.517h.39722a1.0775,1.0775,0,0,1,.76989.18265.75238.75238,0,0,1,.18328.556c0,.54044-.215.77841-.76315.77841" fill="#fff"/>
      <path d="M116.28579,221.05758h-1.45328l-.302-.92163h-1.67524l-.27028.92163h-1.35827l1.31846-4.05066.27359-.97619h1.65629Zm-2.06482-1.85076-.38908-1.207a3.15611,3.15611,0,0,1-.19117-.762h-.01552a3.66954,3.66954,0,0,1-.15861.75412l-.34965,1.21493Z" fill="#fff"/>
      <path d="M92.82726,221.05755h-.81835l-.16624-.25451a2.52182,2.52182,0,0,1-1.31058.34939c-1.628,0-2.27914-1.14332-2.27914-2.605a2.29343,2.29343,0,0,1,2.41434-2.61225,1.88656,1.88656,0,0,1,2.065,1.55618l-1.44553.24624c-.10328-.48447-.29419-.74636-.69892-.74636-.51627,0-.85778.54807-.85778,1.50073,0,1.04793.36567,1.60414,1.13569,1.60414a1.52754,1.52754,0,0,0,.59589-.12706v-.691H90.9213v-.80194h1.906Z" fill="#fff"/>
      <polygon points="97.009 220.08 96.945 221.058 93.46 221.058 93.46 216.031 96.827 216.031 96.827 217.007 94.849 217.007 94.849 218.024 96.469 218.024 96.469 218.993 94.849 218.993 94.849 220.08 97.009 220.08" fill="#fff"/>
      <path d="M101.75053,221.05755H100.877l-2.033-2.40671a1.32026,1.32026,0,0,1-.21483-.33362v2.74033H97.4858V216.0307h.84964l2.049,2.41383a1.49,1.49,0,0,1,.23034.34889V216.0307h1.13569Z" fill="#fff"/>
      <polygon points="106.032 220.08 105.969 221.058 102.483 221.058 102.483 216.031 105.849 216.031 105.849 217.007 103.873 217.007 103.873 218.024 105.492 218.024 105.492 218.993 103.873 218.993 103.873 220.08 106.032 220.08" fill="#fff"/>
      <polygon points="120.14 220.08 120.077 221.058 116.638 221.058 116.638 216.031 118.028 216.031 118.028 220.08 120.14 220.08" fill="#fff"/>
      <path d="M110.62374,220.16774c-.20631,0-.32611-.07161-.47684-.30984l-.40422-.64282a1.54807,1.54807,0,0,0,.94427-1.54881,1.45587,1.45587,0,0,0-.738-1.35828,3.23446,3.23446,0,0,0-1.55682-.27728H106.51l.00039,5.02685h1.38969v-1.66786h.3728l.55595.8967a2.16167,2.16167,0,0,0,.54794.6357,1.35423,1.35423,0,0,0,.80195.22246,1.7179,1.7179,0,0,0,.75449-.18316l.08789-.91272a.73868.73868,0,0,1-.39735.11905m-2.1363-1.64382h-.58737v-1.517h.39659a1.07759,1.07759,0,0,1,.77052.18265.75484.75484,0,0,1,.18226.556c0,.54044-.2138.77841-.762.77841" fill="#fff"/>
      <polygon points="57.766 222.714 58.199 222.714 58.199 224.788 59.497 224.788 59.497 225.182 57.766 225.182 57.766 222.714" fill="#fff"/>
      <rect x="60.98157" y="222.71432" width="0.43372" height="2.46815" fill="#fff"/>
      <polygon points="63.68 223.116 62.898 223.116 62.898 222.714 64.901 222.714 64.901 223.116 64.118 223.116 64.118 225.182 63.68 225.182 63.68 223.116" fill="#fff"/>
      <polygon points="66.377 222.714 68.207 222.714 68.207 223.102 66.81 223.102 66.81 223.744 68.048 223.744 68.048 224.132 66.81 224.132 66.81 224.795 68.224 224.795 68.224 225.182 66.377 225.182 66.377 222.714" fill="#fff"/>
      <path d="M69.81427,222.71428h1.10021a.99421.99421,0,0,1,.71227.24675.74636.74636,0,0,1,.2044.53255v.00687a.74048.74048,0,0,1-.58889.7475l.66661.93447h-.51144l-.60658-.86045H70.248v.86045h-.43372Zm1.06841,1.22358c.31022,0,.50774-.16217.50774-.41248v-.00725c0-.26456-.1904-.40892-.51131-.40892H70.248v.82865Z" fill="#fff"/>
      <path d="M74.36563,222.69637h.40205l1.08608,2.48608H75.3955l-.25044-.59576H73.978l-.25413.59576h-.444Zm.62082,1.50569-.4266-.987-.42355.987Z" fill="#fff"/>
      <path d="M77.06449,223.9555v-.00712a1.249,1.249,0,0,1,1.27267-1.27662,1.2867,1.2867,0,0,1,.96627.38463l-.27842.3209a.98168.98168,0,0,0-.69128-.307.82868.82868,0,0,0-.81453.871v.00712a.83483.83483,0,0,0,.81453.87813.96814.96814,0,0,0,.70884-.321l.27855.28211a1.27418,1.27418,0,0,1-1.0015.43728,1.24135,1.24135,0,0,1-1.25512-1.26937" fill="#fff"/>
      <polygon points="81.551 224.209 80.57 222.714 81.082 222.714 81.773 223.807 82.471 222.714 82.968 222.714 81.988 224.199 81.988 225.182 81.551 225.182 81.551 224.209" fill="#fff"/>
      <polygon points="86.555 222.714 88.328 222.714 88.328 222.972 86.833 222.972 86.833 223.853 88.17 223.853 88.17 224.107 86.833 224.107 86.833 225.182 86.555 225.182 86.555 222.714" fill="#fff"/>
      <path d="M89.73685,223.9555v-.00712a1.25877,1.25877,0,1,1,2.51737-.00712v.00712a1.25877,1.25877,0,1,1-2.51737.00712m2.22839,0v-.00712a.98147.98147,0,0,0-.97314-1.01918.96975.96975,0,0,0-.96627,1.01206v.00712a.98139.98139,0,0,0,.97327,1.01906.96946.96946,0,0,0,.96615-1.01193" fill="#fff"/>
      <path d="M93.86379,224.14927v-1.435h.27855v1.41742c0,.53242.28211.83234.75463.83234.45483,0,.7442-.27524.7442-.81479v-1.435h.27816v1.414a1.02921,1.02921,0,1,1-2.05553.021" fill="#fff"/>
      <polygon points="97.665 222.714 97.926 222.714 99.481 224.692 99.481 222.714 99.753 222.714 99.753 225.182 99.531 225.182 97.937 223.159 97.937 225.182 97.665 225.182 97.665 222.714" fill="#fff"/>
      <path d="M101.52662,222.71425h.85664a1.23,1.23,0,0,1,1.31172,1.227v.00712a1.2355,1.2355,0,0,1-1.31172,1.234h-.85664Zm.85664,2.211a.95542.95542,0,0,0,1.02261-.96971v-.00712a.96091.96091,0,0,0-1.02261-.9767h-.57809v1.95353Z" fill="#fff"/>
      <path d="M106.07953,222.69641h.26062l1.12513,2.48608h-.29979l-.28924-.65249h-1.34339l-.29267.65249h-.28542Zm.68747,1.58366-.56041-1.25907-.56461,1.25907Z" fill="#fff"/>
      <polygon points="109.301 222.972 108.473 222.972 108.473 222.714 110.412 222.714 110.412 222.972 109.583 222.972 109.583 225.182 109.301 225.182 109.301 222.972" fill="#fff"/>
      <rect x="111.95981" y="222.71432" width="0.27855" height="2.46815" fill="#fff"/>
      <path d="M113.891,223.9555v-.00712a1.2589,1.2589,0,1,1,2.51762-.00712v.00712a1.2589,1.2589,0,1,1-2.51762.00712m2.22877,0v-.00712a.98176.98176,0,0,0-.9734-1.01918.96972.96972,0,0,0-.96615,1.01206v.00712a.98121.98121,0,0,0,.97314,1.01906.96967.96967,0,0,0,.9664-1.01193" fill="#fff"/>
      <polygon points="118.053 222.714 118.314 222.714 119.869 224.692 119.869 222.714 120.14 222.714 120.14 225.182 119.918 225.182 118.325 223.159 118.325 225.182 118.053 225.182 118.053 222.714" fill="#fff"/>
      <path d="M46.69665,213.72376a.0554.0554,0,0,0-.05762.05813v3.08642l.11409.03841v-3.12484a.05515.05515,0,0,0-.05647-.05813" fill="#fff"/>
      <path d="M46.14528,213.72376a.0554.0554,0,0,0-.05762.05813v3.08642l.11409.03841v-3.12484a.05508.05508,0,0,0-.05647-.05813" fill="#fff"/>
      <path d="M47.30044,213.72376a.0555.0555,0,0,0-.05775.05813v3.08642l.11422.03841v-3.12484a.05515.05515,0,0,0-.05647-.05813" fill="#fff"/>
      <path d="M48.20742,216.31813l-.00827-2.71286a.14872.14872,0,0,0-.16891-.14869.14261.14261,0,0,0-.16268.14792v2.59088a1.33625,1.33625,0,0,1-.6474.34749v.00051a1.78653,1.78653,0,0,1-.25782.04973,2.11724,2.11724,0,0,1-.27588.01844,1.6524,1.6524,0,0,1-.49808-.08013l-.00127-.00038c-.03956-.01247-.07784-.02557-.11422-.03956v.00114a1.781,1.781,0,0,1-.22182-.10112,1.93862,1.93862,0,0,1-.23518-.14869l-.0234-.01806v-2.61264a.151.151,0,0,0-.166-.15555.15689.15689,0,0,0-.17552.15555s-.02455,2.669-.02455,2.67648l.0103,10.06108a.18059.18059,0,0,0,.04846.12287,1.62537,1.62537,0,0,0,.38081.28275,2.34417,2.34417,0,0,0,1.06955.14805,2.28448,2.28448,0,0,0,1.06256-.147,1.55872,1.55872,0,0,0,.3742-.28376.18731.18731,0,0,0,.04592-.12032Z" fill="#fff"/>
      <path d="M53.7613,213.72376a.0554.0554,0,0,0-.05762.05813v3.08642l.11409.03841v-3.12484a.05508.05508,0,0,0-.05647-.05813" fill="#fff"/>
      <path d="M53.21,213.72376a.0555.0555,0,0,0-.05775.05813v3.08642l.11422.03841v-3.12484a.05508.05508,0,0,0-.05647-.05813" fill="#fff"/>
      <path d="M54.36508,213.72376a.0554.0554,0,0,0-.05762.05813v3.08642l.11409.03841v-3.12484a.05508.05508,0,0,0-.05647-.05813" fill="#fff"/>
      <path d="M55.27207,216.31813l-.00827-2.71286a.14862.14862,0,0,0-.16878-.14869.14266.14266,0,0,0-.1628.14792v2.59088a1.33494,1.33494,0,0,1-.6474.34749v.00051a1.77827,1.77827,0,0,1-.25794.04973,2.11371,2.11371,0,0,1-.27575.01844,1.65154,1.65154,0,0,1-.498-.08013l-.0014-.00038c-.03956-.01247-.07784-.02557-.11409-.03956v.00114a1.77472,1.77472,0,0,1-.22195-.10112,1.95185,1.95185,0,0,1-.2353-.14869l-.02328-.01806v-2.61264a.15092.15092,0,0,0-.16586-.15555.15694.15694,0,0,0-.17565.15555s-.02455,2.669-.02455,2.67648l.0103,10.06108a.18013.18013,0,0,0,.04859.12287,1.622,1.622,0,0,0,.38081.28275,2.34417,2.34417,0,0,0,1.06955.14805,2.28419,2.28419,0,0,0,1.06243-.147,1.553,1.553,0,0,0,.37407-.28376.18527.18527,0,0,0,.04592-.12032Z" fill="#fff"/>
      <path d="M118.90614,216.3757h.11091c.06093,0,.137.01068.137.08255,0,.08115-.05507.09285-.13037.09285h-.11753Zm-.13266.56384h.13266V216.654h.08191l.16319.28554h.13825l-.1782-.2914a.16656.16656,0,0,0,.17464-.17921c0-.14487-.09413-.197-.26075-.197h-.25171Zm-.21228-.33286a.44978.44978,0,1,1,.44937.47048.4491.4491,0,0,1-.44937-.47048m-.16229,0a.61183.61183,0,1,0,.61166-.59475.59243.59243,0,0,0-.61166.59475" fill="#fff"/>
    </g>
  </g>
  <g clip-path="url(#c)">
    <g clip-path="url(#c)">
      <path d="M32.08609,222.17793c-.01293-.01865-.04261-.02777-.074.01251a1.47476,1.47476,0,0,1-.89076.57427.0743.0743,0,0,0-.02692.02141c-.01569.02183-.01187.05257.042.05321.0973.00064.89055,0,.89055,0a.07.07,0,0,0,.05173-.0159c.014-.01378.01569-.04409.01569-.09645v-.50664a.06345.06345,0,0,0-.00827-.0424" fill="#fff"/>
      <path d="M30.83447,217.86172s-1.347-.07483-1.30965,2.05838c.03752,2.13342,1.01774,2.02849,1.2575,2.02849.23933,0,1.36964-.10472,1.30986-2.05859-.06-1.95344-.79325-2.00581-1.25771-2.02828" fill="#fff"/>
      <polygon points="23.522 219.441 25.691 219.441 24.51 216.193 23.522 219.441" fill="#fff"/>
      <path d="M34.95909,222.77185a.97689.97689,0,0,0,.56685-.79346v-9.19147a.82206.82206,0,0,0-.85536-.72605H21.28391a.79508.79508,0,0,0-.8013.89055c0,1.24775-.00254,10.08605-.00254,10.08605a1.11351,1.11351,0,0,0,.88631-.73707c.26943-.68874,2.1631-6.59423,2.1631-6.59423a.52472.52472,0,0,0-.06741-.36695c-.08967-.12719.06-.142.12-.14966.05978-.00742,1.669,0,1.669,0a.54134.54134,0,0,1,.48651.41909c.15814.47442,2.29347,6.3373,2.335,6.44372a1.51619,1.51619,0,0,0,1.97634.80173s-1.91741-.3307-1.91614-2.87431a2.684,2.684,0,0,1,2.70938-2.904,2.46912,2.46912,0,0,1,1.24266.41909v-1.70648a.80948.80948,0,0,0-.17955-.509h1.49662v6.99085a.48528.48528,0,0,0,.4492.55413s.83819-.05406.85918.4191c.02289.50919,0,3.57789,0,3.57789a.71648.71648,0,0,1-.05957.307h.84709a1.1753,1.1753,0,0,1-.03731-.29233c-.00742-.20181,0-3.862,0-3.862s.02735-.12-.15729-.12c-.202,0-.35189-.01484-.35189-.01484s-.03646-.00636-.03477-.02947c.00212-.02374.04261-.03795.04261-.03795" fill="#fff"/>
      <path d="M26.88444,222.716c-.0566-.17-.84731-2.29389-.85472-2.36872a.14882.14882,0,0,0-.1274-.09009c-.0973-.00742-2.52581,0-2.52581,0a.13045.13045,0,0,0-.12719.0973c-.03731.10493-.42673,1.39232-.42673,1.39232a1.007,1.007,0,0,0,.25459,1.04064s.05978.05957-.01505.0672a2.70472,2.70472,0,0,0-2.34265.838,2.088,2.088,0,0,0,.86066,3.25652,2.46377,2.46377,0,0,0,1.57929.11193l.11977-.34448s.0337-.10027.12507-.00657l.01018.014a1.57687,1.57687,0,0,0,.1291.12507,1.52394,1.52394,0,0,0,1.02389.339l.014-.00042.014.00042a1.454,1.454,0,0,0,1.153-.464l.00148-.004a1.51274,1.51274,0,0,0,.37288-1.17122l-.00424-.043c-.00064-.02777-.0017-.05554-.00382-.08416a1.44567,1.44567,0,0,0-1.5193-1.38448l-.014.00021-.014-.00021a1.4461,1.4461,0,0,0-1.51951,1.38448c-.00169.02862-.00276.05639-.00339.08416-.0017.01442-.00339.028-.00424.043a1.75293,1.75293,0,0,0,.10684.746c.00594.01484.014.03095.02162.04727.01675.04791.02819.07547.02819.07547a1.43522,1.43522,0,0,1-1.47457-.15708,1.72674,1.72674,0,0,1-.58381-1.542,1.36708,1.36708,0,0,1,1.175-1.3177,2.12668,2.12668,0,0,1,1.093.23954s.08967.0301.08967-.05957a3.28484,3.28484,0,0,1,.02247-.53887c.02989-.09751.00742-.20223.35932-.21707H26.855s.06847.00827.02947-.10875m-2.9608,2.22648a.677.677,0,0,1,1.31558,0,2.03326,2.03326,0,0,1-.14966,1.60176.636.636,0,0,1-1.01626,0,2.03415,2.03415,0,0,1-.14966-1.60176" fill="#fff"/>
      <path d="M27.08788,224.48576s.04473-.37415-.23954-.38157a3.32243,3.32243,0,0,0-.513.02629s-.10472.02247-.06741.11193a.52758.52758,0,0,1,.06741.26943c0,.14246-.01484,1.77411.01505,1.92377a.94306.94306,0,0,0,.917.74534.95324.95324,0,0,0,.73347-.195s.15729-.14224.15729-.02247.02226.14987.10472.14987h.47124s.09751.004.09751-.17213v-1.68952a1.09349,1.09349,0,0,1,.01569-.22492.55722.55722,0,0,1,.57554-.43605c.49435.01505.50177.47188.50177.65906v1.53414a.88683.88683,0,0,1-.04494.22428c-.03031.05278-.06741.11256.04494.11256h.70973s.07844-.00382.04473-.08607a.37866.37866,0,0,1-.0371-.18358c.00339-.04855,0-1.90109,0-1.90109a.936.936,0,0,0-.9497-.86087,1.16452,1.16452,0,0,0-.70337.20245s-.17234.17934-.17234.05215v-.15687s.02247-.06-.11235-.06762-.49371.00763-.49371.00763-.08988-.00763-.06.07462a.78719.78719,0,0,1,.02989.26943v1.72175a.58112.58112,0,0,1-.71842.47146.56.56,0,0,1-.38179-.524Z" fill="#fff"/>
      <path d="M33.22221,224.13424s.01484.27685.00784.32179c-.00784.04494.01484.15729-.10515.10514a1.10365,1.10365,0,0,0-1.16761.10472,1.29866,1.29866,0,0,0,.09158,1.9278,1.23921,1.23921,0,0,0,1.12818.12274s.10515-.01484.08289.07483c-.02289.09009-.06762.25438-.06762.25438s0,.08267-.17213.11235a1.78043,1.78043,0,0,1-1.58671-.32921,1.46362,1.46362,0,0,1-.53887-1.51209,1.69748,1.69748,0,0,1,1.26492-1.26492,2.36342,2.36342,0,0,1,.98764.02247s.06762.00742.075.06" fill="#fff"/>
      <path d="M34.34507,226.98589a.63341.63341,0,0,1-.02989-.22428v-2.53a.0896.0896,0,0,0-.08225-.11214l-.62324-.03031s-.127.01505-.08183.08246c.04452.0672.0371.0973.04452.23191.00678.11892.00169,2.00093.00042,2.43847a.93719.93719,0,0,1-.028.14033c-.00254.0089-.00254.01505-.00424.02289l-.00381.02247V227.03a.10255.10255,0,0,0,.00127.028.06451.06451,0,0,0,.06678.05893h.00742a.2128.2128,0,0,0,.03519.00382h.63807s.0973.00763.05957-.13482" fill="#fff"/>
    </g>
  </g>
</svg>
