<svg xmlns="http://www.w3.org/2000/svg" viewBox="0 0 300 250">
  <title>Artboard 1</title>
  <g>
    <path d="M25.60645,164.25586v.9873H21.30615V168.375h3.67529v.9873H21.30615v3.84961H20.0874v-8.95605Z" fill="#fff"/>
    <path d="M28.437,164.89355a.71012.71012,0,0,1-.06543.30273.86237.86237,0,0,1-.17529.25.7955.7955,0,0,1-.25293.17188.75316.75316,0,0,1-.30615.0625.73287.73287,0,0,1-.30322-.0625.80512.80512,0,0,1-.25-.17187.81613.81613,0,0,1-.17187-.25.73842.73842,0,0,1-.0625-.30273.78463.78463,0,0,1,.0625-.30957.816.816,0,0,1,.42188-.42773.73286.73286,0,0,1,.30322-.0625.75315.75315,0,0,1,.30615.0625.7955.7955,0,0,1,.25293.17188.83954.83954,0,0,1,.17529.25586A.75429.75429,0,0,1,28.437,164.89355Zm-.25,1.9873v6.33105h-1.1123v-6.33105Z" fill="#fff"/>
    <path d="M30.1123,173.21191v-6.33105h.6626a.28345.28345,0,0,1,.2998.23145l.0874.6875a3.54886,3.54886,0,0,1,.92187-.7373,2.39878,2.39878,0,0,1,1.17822-.28125,2.27515,2.27515,0,0,1,.91553.17188,1.76313,1.76313,0,0,1,.6626.4873,2.154,2.154,0,0,1,.40332.75879,3.31788,3.31788,0,0,1,.13721.98145v4.03125h-1.1123v-4.03125a1.70429,1.70429,0,0,0-.32812-1.11523A1.2271,1.2271,0,0,0,32.937,167.668a1.873,1.873,0,0,0-.92187.23828,3.04349,3.04349,0,0,0-.79053.64355v4.66211Z" fill="#fff"/>
    <path d="M41.48145,173.21191a.28345.28345,0,0,1-.2998-.23145l-.1001-.76855a3.34031,3.34031,0,0,1-.92822.791,2.37291,2.37291,0,0,1-1.19678.29688,2.28308,2.28308,0,0,1-.9873-.21,2.03812,2.03812,0,0,1-.75635-.61523,2.93186,2.93186,0,0,1-.48145-1.0127,5.21841,5.21841,0,0,1-.16846-1.39355,4.3619,4.3619,0,0,1,.1875-1.30273,3.17518,3.17518,0,0,1,.54053-1.04687,2.47767,2.47767,0,0,1,2.00928-.9502,2.29543,2.29543,0,0,1,.99365.19629,2.40083,2.40083,0,0,1,.73779.55371v-3.5127H42.144v9.20605Zm-2.15625-.8125a1.78851,1.78851,0,0,0,.95313-.25,2.73386,2.73386,0,0,0,.75342-.70605v-3.0625a1.76005,1.76005,0,0,0-.67187-.57812,1.94211,1.94211,0,0,0-.80957-.166,1.6019,1.6019,0,0,0-1.3623.63184,2.946,2.946,0,0,0-.4751,1.7998,4.58553,4.58553,0,0,0,.106,1.05957,2.03839,2.03839,0,0,0,.3125.72461,1.23648,1.23648,0,0,0,.50635.416A1.71115,1.71115,0,0,0,39.3252,172.39941Z" fill="#fff"/>
    <path d="M46.6001,173.21191v-5.38086l-.7002-.08105a.56279.56279,0,0,1-.21533-.09766.22379.22379,0,0,1-.08447-.19043v-.45605h1v-.6123a2.82357,2.82357,0,0,1,.15283-.96582,1.9654,1.9654,0,0,1,.4375-.71289,1.87041,1.87041,0,0,1,.68457-.44043,2.556,2.556,0,0,1,.8999-.14941,2.38492,2.38492,0,0,1,.7876.125l-.0249.55566a.14211.14211,0,0,1-.10645.15039,1.2284,1.2284,0,0,1-.28125.02441h-.19385a1.7113,1.7113,0,0,0-.52148.0752.98624.98624,0,0,0-.40332.24414,1.10346,1.10346,0,0,0-.25928.44336,2.2023,2.2023,0,0,0-.09082.68164v.58105H49.5127v.80664H47.71875v5.39941Z" fill="#fff"/>
    <path d="M50.5249,173.21191v-6.33105h.63721a.35613.35613,0,0,1,.25.06836.42128.42128,0,0,1,.09375.23828l.0752.9873a2.89916,2.89916,0,0,1,.80322-1.03418,1.773,1.773,0,0,1,1.12158-.37207,1.74486,1.74486,0,0,1,.4751.05957,1.66221,1.66221,0,0,1,.394.165l-.144.83105a.18774.18774,0,0,1-.19385.15625.98248.98248,0,0,1-.26855-.05859,1.68054,1.68054,0,0,0-.50635-.05957,1.4352,1.4352,0,0,0-.97168.33691,2.54223,2.54223,0,0,0-.65332.98145v4.03125Z" fill="#fff"/>
    <path d="M58.03125,166.78125a2.82856,2.82856,0,0,1,1.0498.19043,2.35914,2.35914,0,0,1,.83105.5498,2.495,2.495,0,0,1,.54688.8877,3.42351,3.42351,0,0,1,.19727,1.20313.71985.71985,0,0,1-.05664.34961.23271.23271,0,0,1-.2124.08789H56.1748a3.49586,3.49586,0,0,0,.1626,1.04395,2.13167,2.13167,0,0,0,.4126.74023,1.64366,1.64366,0,0,0,.625.44336,2.12987,2.12987,0,0,0,.8125.14746,2.38868,2.38868,0,0,0,.72168-.09668,3.40412,3.40412,0,0,0,.522-.21,4.14736,4.14736,0,0,0,.36572-.209.48411.48411,0,0,1,.25293-.09668.24482.24482,0,0,1,.2124.10547l.3125.40625a2.10826,2.10826,0,0,1-.49365.43457,3.07278,3.07278,0,0,1-.61572.30371,3.86841,3.86841,0,0,1-.67822.17773,4.09236,4.09236,0,0,1-.69336.05957,3.22835,3.22835,0,0,1-1.20947-.22168,2.66963,2.66963,0,0,1-.95654-.65039,2.981,2.981,0,0,1-.62793-1.05957,4.31134,4.31134,0,0,1-.2251-1.4502,3.69506,3.69506,0,0,1,.20313-1.2373,2.91655,2.91655,0,0,1,.58447-.99707,2.68272,2.68272,0,0,1,.93115-.66211A3.06229,3.06229,0,0,1,58.03125,166.78125Zm.0249.81836a1.70845,1.70845,0,0,0-1.269.46582,2.19023,2.19023,0,0,0-.57471,1.29h3.44385a2.25451,2.25451,0,0,0-.10645-.709,1.57666,1.57666,0,0,0-.3125-.55664,1.40685,1.40685,0,0,0-.50293-.3623A1.7073,1.7073,0,0,0,58.05615,167.59961Z" fill="#fff"/>
    <path d="M64.54395,166.78125a2.82856,2.82856,0,0,1,1.0498.19043,2.35914,2.35914,0,0,1,.83105.5498,2.495,2.495,0,0,1,.54688.8877,3.42351,3.42351,0,0,1,.19727,1.20313.71985.71985,0,0,1-.05664.34961.23271.23271,0,0,1-.2124.08789H62.6875a3.49586,3.49586,0,0,0,.1626,1.04395,2.13167,2.13167,0,0,0,.4126.74023,1.64366,1.64366,0,0,0,.625.44336,2.12987,2.12987,0,0,0,.8125.14746,2.38868,2.38868,0,0,0,.72168-.09668,3.40412,3.40412,0,0,0,.522-.21,4.14736,4.14736,0,0,0,.36572-.209.48411.48411,0,0,1,.25293-.09668.24482.24482,0,0,1,.2124.10547l.3125.40625a2.10826,2.10826,0,0,1-.49365.43457,3.07278,3.07278,0,0,1-.61572.30371,3.86841,3.86841,0,0,1-.67822.17773,4.09236,4.09236,0,0,1-.69336.05957,3.22835,3.22835,0,0,1-1.20947-.22168,2.66963,2.66963,0,0,1-.95654-.65039,2.981,2.981,0,0,1-.62793-1.05957,4.31134,4.31134,0,0,1-.2251-1.4502,3.69506,3.69506,0,0,1,.20313-1.2373,2.91655,2.91655,0,0,1,.58447-.99707,2.68272,2.68272,0,0,1,.93115-.66211A3.06229,3.06229,0,0,1,64.54395,166.78125Zm.0249.81836a1.70845,1.70845,0,0,0-1.269.46582,2.19023,2.19023,0,0,0-.57471,1.29h3.44385a2.25451,2.25451,0,0,0-.10645-.709,1.57666,1.57666,0,0,0-.3125-.55664,1.40685,1.40685,0,0,0-.50293-.3623A1.7073,1.7073,0,0,0,64.56885,167.59961Z" fill="#fff"/>
    <path d="M75.57471,173.21191h-.49365a.59268.59268,0,0,1-.2627-.0498.27816.27816,0,0,1-.13135-.21289l-.125-.58691q-.24976.22412-.4873.40332a2.81428,2.81428,0,0,1-.5.2998,2.61216,2.61216,0,0,1-.55957.18457,3.25083,3.25083,0,0,1-.65918.0625,2.25926,2.25926,0,0,1-.69043-.10352,1.56348,1.56348,0,0,1-.55957-.30957,1.47849,1.47849,0,0,1-.37793-.52148,1.82766,1.82766,0,0,1-.14062-.74707,1.3908,1.3908,0,0,1,.20605-.72168,1.81824,1.81824,0,0,1,.66553-.61621,4.37376,4.37376,0,0,1,1.20313-.44043,9.19217,9.19217,0,0,1,1.81885-.19629v-.49414a1.70631,1.70631,0,0,0-.31543-1.11523,1.14884,1.14884,0,0,0-.93457-.37891,1.99058,1.99058,0,0,0-.68457.10352,2.53676,2.53676,0,0,0-.481.23145q-.20361.12744-.3501.23145a.50727.50727,0,0,1-.29053.10254.32944.32944,0,0,1-.19678-.05957.44421.44421,0,0,1-.13477-.14648l-.19971-.35645a3.62984,3.62984,0,0,1,1.13135-.75586,3.48536,3.48536,0,0,1,1.34375-.25,2.404,2.404,0,0,1,.94336.1748,1.9424,1.9424,0,0,1,.69385.4873,2.07766,2.07766,0,0,1,.42529.75684,3.14987,3.14987,0,0,1,.14355.97461Zm-2.8877-.68066a2.29993,2.29993,0,0,0,.5376-.05957,2.12389,2.12389,0,0,0,.45947-.16895,2.44679,2.44679,0,0,0,.4126-.26562,3.55309,3.55309,0,0,0,.38428-.35645V170.3623a9.19659,9.19659,0,0,0-1.30615.12207,3.644,3.644,0,0,0-.875.25293,1.221,1.221,0,0,0-.49072.36816.79779.79779,0,0,0-.15332.47559,1.04114,1.04114,0,0,0,.08154.43066.80647.80647,0,0,0,.21875.29688.8553.8553,0,0,0,.32471.16895A1.45959,1.45959,0,0,0,72.687,172.53125Z" fill="#fff"/>
    <path d="M81.68066,173.21191a.28345.28345,0,0,1-.2998-.23145l-.1001-.76855a3.34031,3.34031,0,0,1-.92822.791,2.37291,2.37291,0,0,1-1.19678.29688,2.28308,2.28308,0,0,1-.9873-.21,2.03812,2.03812,0,0,1-.75635-.61523,2.93186,2.93186,0,0,1-.48145-1.0127,5.21841,5.21841,0,0,1-.16846-1.39355,4.3619,4.3619,0,0,1,.1875-1.30273,3.17518,3.17518,0,0,1,.54053-1.04687,2.47767,2.47767,0,0,1,2.00928-.9502,2.29543,2.29543,0,0,1,.99365.19629,2.40083,2.40083,0,0,1,.73779.55371v-3.5127h1.1123v9.20605Zm-2.15625-.8125a1.78851,1.78851,0,0,0,.95313-.25,2.73386,2.73386,0,0,0,.75342-.70605v-3.0625a1.76005,1.76005,0,0,0-.67187-.57812,1.94211,1.94211,0,0,0-.80957-.166,1.6019,1.6019,0,0,0-1.3623.63184,2.946,2.946,0,0,0-.4751,1.7998,4.58553,4.58553,0,0,0,.106,1.05957,2.03839,2.03839,0,0,0,.3125.72461,1.23648,1.23648,0,0,0,.50635.416A1.71115,1.71115,0,0,0,79.52441,172.39941Z" fill="#fff"/>
    <path d="M85.13672,166.88086V170.918a1.68279,1.68279,0,0,0,.33105,1.11328,1.23606,1.23606,0,0,0,1,.39355,1.91472,1.91472,0,0,0,.91895-.23145,2.86936,2.86936,0,0,0,.79395-.64355v-4.66895H89.293v6.33105h-.6626a.28345.28345,0,0,1-.2998-.23145l-.0874-.68066a3.5,3.5,0,0,1-.92529.73438,2.423,2.423,0,0,1-1.1748.27832,2.28858,2.28858,0,0,1-.91553-.17187,1.82755,1.82755,0,0,1-.666-.48437,2.06011,2.06011,0,0,1-.40283-.75684,3.36879,3.36879,0,0,1-.13428-.98145v-4.03711Z" fill="#fff"/>
    <path d="M92.32471,164.00586v9.20605H91.2124v-9.20605Z" fill="#fff"/>
    <path d="M96.168,173.3125a1.52488,1.52488,0,0,1-1.15283-.41895,1.67051,1.67051,0,0,1-.40332-1.20605v-3.875h-.76221a.25214.25214,0,0,1-.16895-.05957.2321.2321,0,0,1-.06885-.18457V167.125l1.0376-.13184.25635-1.95605a.23741.23741,0,0,1,.08105-.15332.261.261,0,0,1,.17529-.05957h.5625v2.18164h1.8125v.80664h-1.8125v3.7998a.809.809,0,0,0,.19336.59375.67786.67786,0,0,0,.5.19336.88321.88321,0,0,0,.30322-.04687,1.33468,1.33468,0,0,0,.22217-.10254c.0625-.03809.11523-.07227.15918-.10352a.2084.2084,0,0,1,.11572-.04687.1912.1912,0,0,1,.15625.10645l.32471.53125a2.08632,2.08632,0,0,1-.69336.42188A2.36987,2.36987,0,0,1,96.168,173.3125Z" fill="#fff"/>
    <path d="M103.75537,166.78125a2.82856,2.82856,0,0,1,1.0498.19043,2.35914,2.35914,0,0,1,.83105.5498,2.495,2.495,0,0,1,.54688.8877,3.42351,3.42351,0,0,1,.19727,1.20313.71985.71985,0,0,1-.05664.34961.23271.23271,0,0,1-.2124.08789h-4.2124a3.49587,3.49587,0,0,0,.1626,1.04395,2.13168,2.13168,0,0,0,.4126.74023,1.64366,1.64366,0,0,0,.625.44336,2.12987,2.12987,0,0,0,.8125.14746,2.38868,2.38868,0,0,0,.72168-.09668,3.40412,3.40412,0,0,0,.522-.21,4.14736,4.14736,0,0,0,.36572-.209.48411.48411,0,0,1,.25293-.09668.24482.24482,0,0,1,.2124.10547l.3125.40625a2.10826,2.10826,0,0,1-.49365.43457,3.07278,3.07278,0,0,1-.61572.30371,3.86841,3.86841,0,0,1-.67822.17773,4.09237,4.09237,0,0,1-.69336.05957,3.22835,3.22835,0,0,1-1.20947-.22168,2.66963,2.66963,0,0,1-.95654-.65039,2.981,2.981,0,0,1-.62793-1.05957,4.31134,4.31134,0,0,1-.2251-1.4502,3.69506,3.69506,0,0,1,.20313-1.2373,2.91655,2.91655,0,0,1,.58447-.99707,2.68272,2.68272,0,0,1,.93115-.66211A3.06229,3.06229,0,0,1,103.75537,166.78125Zm.0249.81836a1.70845,1.70845,0,0,0-1.269.46582,2.19023,2.19023,0,0,0-.57471,1.29h3.44385a2.25451,2.25451,0,0,0-.10645-.709,1.57666,1.57666,0,0,0-.3125-.55664,1.40685,1.40685,0,0,0-.50293-.3623A1.7073,1.7073,0,0,0,103.78027,167.59961Z" fill="#fff"/>
    <path d="M112.21729,173.21191a.28345.28345,0,0,1-.2998-.23145l-.1001-.76855a3.34031,3.34031,0,0,1-.92822.791,2.37291,2.37291,0,0,1-1.19678.29688,2.28308,2.28308,0,0,1-.9873-.21,2.03812,2.03812,0,0,1-.75635-.61523,2.93186,2.93186,0,0,1-.48145-1.0127,5.21841,5.21841,0,0,1-.16846-1.39355,4.3619,4.3619,0,0,1,.1875-1.30273,3.17518,3.17518,0,0,1,.54053-1.04687,2.47767,2.47767,0,0,1,2.00928-.9502,2.29543,2.29543,0,0,1,.99365.19629,2.40083,2.40083,0,0,1,.73779.55371v-3.5127h1.1123v9.20605Zm-2.15625-.8125a1.78851,1.78851,0,0,0,.95313-.25,2.73386,2.73386,0,0,0,.75342-.70605v-3.0625a1.76,1.76,0,0,0-.67187-.57812,1.94211,1.94211,0,0,0-.80957-.166,1.6019,1.6019,0,0,0-1.3623.63184,2.946,2.946,0,0,0-.4751,1.7998,4.58553,4.58553,0,0,0,.106,1.05957,2.03839,2.03839,0,0,0,.3125.72461,1.23648,1.23648,0,0,0,.50635.416A1.71115,1.71115,0,0,0,110.061,172.39941Z" fill="#fff"/>
    <path d="M115.67383,166.88086V170.918a1.68279,1.68279,0,0,0,.33105,1.11328,1.23606,1.23606,0,0,0,1,.39355,1.91472,1.91472,0,0,0,.91895-.23145,2.86936,2.86936,0,0,0,.79395-.64355v-4.66895h1.1123v6.33105h-.6626a.28345.28345,0,0,1-.2998-.23145l-.0874-.68066a3.5,3.5,0,0,1-.92529.73438,2.423,2.423,0,0,1-1.1748.27832,2.28858,2.28858,0,0,1-.91553-.17187,1.82755,1.82755,0,0,1-.666-.48437,2.0601,2.0601,0,0,1-.40283-.75684,3.36879,3.36879,0,0,1-.13428-.98145v-4.03711Z" fill="#fff"/>
    <path d="M125.94287,168.00586a.51913.51913,0,0,1-.1001.10645.24225.24225,0,0,1-.144.03711.35324.35324,0,0,1-.20312-.07812,3.02546,3.02546,0,0,0-.27783-.17187,2.3849,2.3849,0,0,0-.40967-.17187,2.16842,2.16842,0,0,0-1.40918.08789,1.58773,1.58773,0,0,0-.59668.47754,2.1733,2.1733,0,0,0-.36279.75684,3.75893,3.75893,0,0,0-.12158.99316,3.63659,3.63659,0,0,0,.13086,1.02246,2.21647,2.21647,0,0,0,.36914.75,1.55852,1.55852,0,0,0,.57813.46191,1.78129,1.78129,0,0,0,.76563.16016,1.93365,1.93365,0,0,0,.66846-.09766,2.02885,2.02885,0,0,0,.4375-.21484,3.24363,3.24363,0,0,0,.2876-.21582.347.347,0,0,1,.2251-.09668.23584.23584,0,0,1,.2124.10547l.3125.40625a2.40215,2.40215,0,0,1-1.03125.74121,3.65756,3.65756,0,0,1-1.30615.23438,2.76951,2.76951,0,0,1-1.103-.21875,2.508,2.508,0,0,1-.88477-.63477,2.99628,2.99628,0,0,1-.59033-1.02148,4.1009,4.1009,0,0,1-.21582-1.38184,4.1733,4.1733,0,0,1,.19678-1.30566,2.95456,2.95456,0,0,1,.5752-1.03418,2.60634,2.60634,0,0,1,.93457-.67871,3.15341,3.15341,0,0,1,1.2749-.24316,3.01154,3.01154,0,0,1,1.1748.21484,2.83291,2.83291,0,0,1,.90625.60938Z" fill="#fff"/>
    <path d="M132.07373,173.21191h-.49365a.59268.59268,0,0,1-.2627-.0498.27816.27816,0,0,1-.13135-.21289l-.125-.58691q-.24976.22412-.4873.40332a2.81429,2.81429,0,0,1-.5.2998,2.61217,2.61217,0,0,1-.55957.18457,3.25083,3.25083,0,0,1-.65918.0625,2.25926,2.25926,0,0,1-.69043-.10352,1.56348,1.56348,0,0,1-.55957-.30957,1.47849,1.47849,0,0,1-.37793-.52148,1.82766,1.82766,0,0,1-.14062-.74707,1.3908,1.3908,0,0,1,.20605-.72168,1.81824,1.81824,0,0,1,.66553-.61621,4.37376,4.37376,0,0,1,1.20312-.44043,9.19217,9.19217,0,0,1,1.81885-.19629v-.49414a1.70631,1.70631,0,0,0-.31543-1.11523,1.14884,1.14884,0,0,0-.93457-.37891,1.99058,1.99058,0,0,0-.68457.10352,2.53676,2.53676,0,0,0-.481.23145q-.20361.12744-.3501.23145a.50727.50727,0,0,1-.29053.10254.32944.32944,0,0,1-.19678-.05957.44421.44421,0,0,1-.13477-.14648l-.19971-.35645a3.62984,3.62984,0,0,1,1.13135-.75586,3.48536,3.48536,0,0,1,1.34375-.25,2.404,2.404,0,0,1,.94336.1748,1.9424,1.9424,0,0,1,.69385.4873,2.07766,2.07766,0,0,1,.42529.75684,3.14987,3.14987,0,0,1,.14355.97461Zm-2.8877-.68066a2.29993,2.29993,0,0,0,.5376-.05957,2.12389,2.12389,0,0,0,.45947-.16895,2.44679,2.44679,0,0,0,.4126-.26562,3.55308,3.55308,0,0,0,.38428-.35645V170.3623a9.19659,9.19659,0,0,0-1.30615.12207,3.64405,3.64405,0,0,0-.875.25293,1.221,1.221,0,0,0-.49072.36816.79779.79779,0,0,0-.15332.47559,1.04114,1.04114,0,0,0,.08154.43066.80647.80647,0,0,0,.21875.29688.8553.8553,0,0,0,.32471.16895A1.45959,1.45959,0,0,0,129.186,172.53125Z" fill="#fff"/>
    <path d="M135.64209,173.3125a1.52488,1.52488,0,0,1-1.15283-.41895,1.67051,1.67051,0,0,1-.40332-1.20605v-3.875h-.76221a.25214.25214,0,0,1-.16895-.05957.2321.2321,0,0,1-.06885-.18457V167.125l1.0376-.13184.25635-1.95605a.23741.23741,0,0,1,.08105-.15332.261.261,0,0,1,.17529-.05957h.5625v2.18164h1.8125v.80664h-1.8125v3.7998a.809.809,0,0,0,.19336.59375.67786.67786,0,0,0,.5.19336.88321.88321,0,0,0,.30322-.04687,1.33468,1.33468,0,0,0,.22217-.10254c.0625-.03809.11523-.07227.15918-.10352a.2084.2084,0,0,1,.11572-.04687.1912.1912,0,0,1,.15625.10645l.32471.53125a2.08632,2.08632,0,0,1-.69336.42188A2.36987,2.36987,0,0,1,135.64209,173.3125Z" fill="#fff"/>
    <path d="M139.83545,164.89355a.71012.71012,0,0,1-.06543.30273.86237.86237,0,0,1-.17529.25.7955.7955,0,0,1-.25293.17188.75316.75316,0,0,1-.30615.0625.73287.73287,0,0,1-.30322-.0625.80512.80512,0,0,1-.25-.17187.81613.81613,0,0,1-.17187-.25.73842.73842,0,0,1-.0625-.30273.78463.78463,0,0,1,.0625-.30957.816.816,0,0,1,.42188-.42773.73286.73286,0,0,1,.30322-.0625.75315.75315,0,0,1,.30615.0625.7955.7955,0,0,1,.25293.17188.83954.83954,0,0,1,.17529.25586A.75429.75429,0,0,1,139.83545,164.89355Zm-.25,1.9873v6.33105h-1.1123v-6.33105Z" fill="#fff"/>
    <path d="M144.07324,166.78125a3.2676,3.2676,0,0,1,1.25293.23047,2.64794,2.64794,0,0,1,.9502.65625,2.92356,2.92356,0,0,1,.6001,1.02832,4.456,4.456,0,0,1,0,2.69727,2.91475,2.91475,0,0,1-.6001,1.02441,2.59317,2.59317,0,0,1-.9502.65332,3.55044,3.55044,0,0,1-2.50635,0,2.62476,2.62476,0,0,1-.95312-.65332,2.92637,2.92637,0,0,1-.606-1.02441,4.38771,4.38771,0,0,1,0-2.69727,2.93506,2.93506,0,0,1,.606-1.02832,2.6807,2.6807,0,0,1,.95313-.65625A3.27012,3.27012,0,0,1,144.07324,166.78125Zm0,5.64941a1.62484,1.62484,0,0,0,1.3999-.62793,3.57232,3.57232,0,0,0,0-3.51562,1.62183,1.62183,0,0,0-1.3999-.63086,1.94244,1.94244,0,0,0-.8252.16211,1.54519,1.54519,0,0,0-.58447.46875,2.07362,2.07362,0,0,0-.34961.75293,4.03662,4.03662,0,0,0-.11572,1.00977,3.9936,3.9936,0,0,0,.11572,1.00586,2.04469,2.04469,0,0,0,.34961.74707,1.55655,1.55655,0,0,0,.58447.46582A1.94244,1.94244,0,0,0,144.07324,172.43066Z" fill="#fff"/>
    <path d="M148.42334,173.21191v-6.33105h.6626a.28345.28345,0,0,1,.2998.23145l.0874.6875a3.54886,3.54886,0,0,1,.92188-.7373,2.39746,2.39746,0,0,1,1.17822-.28125,2.27273,2.27273,0,0,1,.915.17188,1.76871,1.76871,0,0,1,.66309.4873,2.16184,2.16184,0,0,1,.40332.75879,3.33431,3.33431,0,0,1,.13672.98145v4.03125h-1.1123v-4.03125a1.70429,1.70429,0,0,0-.32812-1.11523,1.22606,1.22606,0,0,0-1.00293-.39746,1.873,1.873,0,0,0-.92187.23828,3.04349,3.04349,0,0,0-.79053.64355v4.66211Z" fill="#fff"/>
    <path d="M24.23145,183.00586a.51913.51913,0,0,1-.1001.10645.24225.24225,0,0,1-.144.03711.35324.35324,0,0,1-.20312-.07812,3.02546,3.02546,0,0,0-.27783-.17187,2.38491,2.38491,0,0,0-.40967-.17187,2.16842,2.16842,0,0,0-1.40918.08789,1.58773,1.58773,0,0,0-.59668.47754,2.1733,2.1733,0,0,0-.36279.75684,3.75893,3.75893,0,0,0-.12158.99316,3.63659,3.63659,0,0,0,.13086,1.02246,2.21647,2.21647,0,0,0,.36914.75,1.55852,1.55852,0,0,0,.57813.46191,1.78129,1.78129,0,0,0,.76563.16016,1.93365,1.93365,0,0,0,.66846-.09766,2.02885,2.02885,0,0,0,.4375-.21484,3.24363,3.24363,0,0,0,.2876-.21582.347.347,0,0,1,.2251-.09668.23584.23584,0,0,1,.2124.10547l.3125.40625a2.40215,2.40215,0,0,1-1.03125.74121,3.65756,3.65756,0,0,1-1.30615.23438,2.76951,2.76951,0,0,1-1.103-.21875,2.508,2.508,0,0,1-.88477-.63477,2.99628,2.99628,0,0,1-.59033-1.02148,4.1009,4.1009,0,0,1-.21582-1.38184,4.1733,4.1733,0,0,1,.19678-1.30566,2.95456,2.95456,0,0,1,.5752-1.03418,2.60634,2.60634,0,0,1,.93457-.67871,3.15341,3.15341,0,0,1,1.2749-.24316,3.01154,3.01154,0,0,1,1.1748.21484,2.83291,2.83291,0,0,1,.90625.60938Z" fill="#fff"/>
    <path d="M26.94971,179.00586v9.20605H25.8374v-9.20605Z" fill="#fff"/>
    <path d="M33.5249,188.21191h-.49365a.59268.59268,0,0,1-.2627-.0498.27816.27816,0,0,1-.13135-.21289l-.125-.58691q-.24976.22412-.4873.40332a2.81428,2.81428,0,0,1-.5.2998,2.61216,2.61216,0,0,1-.55957.18457,3.25083,3.25083,0,0,1-.65918.0625,2.25926,2.25926,0,0,1-.69043-.10352,1.56348,1.56348,0,0,1-.55957-.30957,1.47849,1.47849,0,0,1-.37793-.52148,1.82766,1.82766,0,0,1-.14062-.74707,1.3908,1.3908,0,0,1,.20605-.72168,1.81824,1.81824,0,0,1,.66553-.61621,4.37376,4.37376,0,0,1,1.20313-.44043,9.19217,9.19217,0,0,1,1.81885-.19629v-.49414a1.70631,1.70631,0,0,0-.31543-1.11523,1.14884,1.14884,0,0,0-.93457-.37891,1.99058,1.99058,0,0,0-.68457.10352,2.53676,2.53676,0,0,0-.481.23145q-.20361.12744-.3501.23145a.50727.50727,0,0,1-.29053.10254.32944.32944,0,0,1-.19678-.05957.44421.44421,0,0,1-.13477-.14648l-.19971-.35645a3.62984,3.62984,0,0,1,1.13135-.75586,3.48536,3.48536,0,0,1,1.34375-.25,2.404,2.404,0,0,1,.94336.1748,1.9424,1.9424,0,0,1,.69385.4873,2.07766,2.07766,0,0,1,.42529.75684,3.14987,3.14987,0,0,1,.14355.97461Zm-2.8877-.68066a2.29993,2.29993,0,0,0,.5376-.05957,2.12389,2.12389,0,0,0,.45947-.16895,2.44679,2.44679,0,0,0,.4126-.26562,3.55309,3.55309,0,0,0,.38428-.35645V185.3623a9.19659,9.19659,0,0,0-1.30615.12207,3.644,3.644,0,0,0-.875.25293,1.221,1.221,0,0,0-.49072.36816.79779.79779,0,0,0-.15332.47559,1.04114,1.04114,0,0,0,.08154.43066.80647.80647,0,0,0,.21875.29688.8553.8553,0,0,0,.32471.16895A1.45959,1.45959,0,0,0,30.63721,187.53125Z" fill="#fff"/>
    <path d="M38.80029,182.9248a.24726.24726,0,0,1-.23145.1377.43541.43541,0,0,1-.2124-.06934c-.0791-.0459-.17627-.09668-.29053-.15332a2.89792,2.89792,0,0,0-.40967-.15625,1.95523,1.95523,0,0,0-.5625-.07129,1.65948,1.65948,0,0,0-.50586.07129,1.24236,1.24236,0,0,0-.38477.19727.87152.87152,0,0,0-.24365.291.77923.77923,0,0,0-.08447.35938.59953.59953,0,0,0,.14063.40625,1.21928,1.21928,0,0,0,.37207.28125,3.265,3.265,0,0,0,.5249.209q.2937.09082.603.19336c.20654.06934.40723.14551.60352.22852a2.1805,2.1805,0,0,1,.5249.3125,1.438,1.438,0,0,1,.37158.459,1.40876,1.40876,0,0,1,.14063.65332A2.06274,2.06274,0,0,1,39,187.084a1.75818,1.75818,0,0,1-.4624.64355,2.22888,2.22888,0,0,1-.75.42871,3.09694,3.09694,0,0,1-1.0249.15625,3.20157,3.20157,0,0,1-1.2002-.21582,3.02315,3.02315,0,0,1-.91211-.55371l.26221-.4248a.3849.3849,0,0,1,.11865-.125.33344.33344,0,0,1,.18164-.04395.41826.41826,0,0,1,.2373.08789q.12524.08789.30322.19336a2.3089,2.3089,0,0,0,.43115.19434,1.961,1.961,0,0,0,.63428.08691,1.7295,1.7295,0,0,0,.56885-.084,1.1874,1.1874,0,0,0,.40625-.22852.903.903,0,0,0,.24072-.33105,1.03276,1.03276,0,0,0,.07813-.39941.66193.66193,0,0,0-.14062-.43457,1.18847,1.18847,0,0,0-.37207-.29395,3.062,3.062,0,0,0-.52783-.21289q-.29736-.08936-.60645-.19043-.30908-.09961-.60645-.22754a2.15046,2.15046,0,0,1-.52783-.32227,1.44712,1.44712,0,0,1-.37207-.47852,1.54285,1.54285,0,0,1-.14062-.69043,1.68851,1.68851,0,0,1,.1499-.69629,1.71,1.71,0,0,1,.4375-.58789,2.16437,2.16437,0,0,1,.70654-.40332,2.8335,2.8335,0,0,1,.95605-.14941,3.03533,3.03533,0,0,1,1.12207.19629,2.66276,2.66276,0,0,1,.85938.541Z" fill="#fff"/>
    <path d="M44.1875,182.9248a.24726.24726,0,0,1-.23145.1377.43541.43541,0,0,1-.2124-.06934c-.0791-.0459-.17627-.09668-.29053-.15332a2.89792,2.89792,0,0,0-.40967-.15625,1.95523,1.95523,0,0,0-.5625-.07129,1.65948,1.65948,0,0,0-.50586.07129,1.24236,1.24236,0,0,0-.38477.19727.87152.87152,0,0,0-.24365.291.77923.77923,0,0,0-.08447.35938.59953.59953,0,0,0,.14063.40625,1.21928,1.21928,0,0,0,.37207.28125,3.265,3.265,0,0,0,.5249.209q.2937.09082.603.19336c.20654.06934.40723.14551.60352.22852a2.1805,2.1805,0,0,1,.5249.3125,1.438,1.438,0,0,1,.37158.459,1.40876,1.40876,0,0,1,.14063.65332,2.06274,2.06274,0,0,1-.15625.80957,1.75818,1.75818,0,0,1-.4624.64355,2.22888,2.22888,0,0,1-.75.42871,3.09694,3.09694,0,0,1-1.0249.15625,3.20157,3.20157,0,0,1-1.2002-.21582,3.02315,3.02315,0,0,1-.91211-.55371l.26221-.4248a.3849.3849,0,0,1,.11865-.125.33344.33344,0,0,1,.18164-.04395.41826.41826,0,0,1,.2373.08789q.12524.08789.30322.19336a2.3089,2.3089,0,0,0,.43115.19434,1.961,1.961,0,0,0,.63428.08691,1.7295,1.7295,0,0,0,.56885-.084,1.1874,1.1874,0,0,0,.40625-.22852.903.903,0,0,0,.24072-.33105,1.03276,1.03276,0,0,0,.07813-.39941.66193.66193,0,0,0-.14062-.43457,1.18847,1.18847,0,0,0-.37207-.29395,3.062,3.062,0,0,0-.52783-.21289q-.29736-.08936-.60645-.19043-.30908-.09961-.60645-.22754a2.15046,2.15046,0,0,1-.52783-.32227,1.44712,1.44712,0,0,1-.37207-.47852,1.54285,1.54285,0,0,1-.14062-.69043,1.68851,1.68851,0,0,1,.1499-.69629,1.71,1.71,0,0,1,.4375-.58789,2.16437,2.16437,0,0,1,.70654-.40332,2.8335,2.8335,0,0,1,.95605-.14941,3.03533,3.03533,0,0,1,1.12207.19629,2.66276,2.66276,0,0,1,.85938.541Z" fill="#fff"/>
    <path d="M48.45605,181.78125a2.82856,2.82856,0,0,1,1.0498.19043,2.35914,2.35914,0,0,1,.83105.5498,2.495,2.495,0,0,1,.54688.8877,3.42351,3.42351,0,0,1,.19727,1.20313.71985.71985,0,0,1-.05664.34961.23271.23271,0,0,1-.2124.08789h-4.2124a3.49586,3.49586,0,0,0,.1626,1.04395,2.13167,2.13167,0,0,0,.4126.74023,1.64366,1.64366,0,0,0,.625.44336,2.12987,2.12987,0,0,0,.8125.14746,2.38868,2.38868,0,0,0,.72168-.09668,3.40412,3.40412,0,0,0,.522-.21,4.14736,4.14736,0,0,0,.36572-.209.48411.48411,0,0,1,.25293-.09668.24482.24482,0,0,1,.2124.10547l.3125.40625a2.10826,2.10826,0,0,1-.49365.43457,3.07278,3.07278,0,0,1-.61572.30371,3.86841,3.86841,0,0,1-.67822.17773,4.09236,4.09236,0,0,1-.69336.05957,3.22835,3.22835,0,0,1-1.20947-.22168,2.66963,2.66963,0,0,1-.95654-.65039,2.981,2.981,0,0,1-.62793-1.05957,4.31134,4.31134,0,0,1-.2251-1.4502,3.69506,3.69506,0,0,1,.20313-1.2373,2.91655,2.91655,0,0,1,.58447-.99707,2.68272,2.68272,0,0,1,.93115-.66211A3.06229,3.06229,0,0,1,48.45605,181.78125Zm.0249.81836a1.70845,1.70845,0,0,0-1.269.46582,2.19023,2.19023,0,0,0-.57471,1.29h3.44385a2.25451,2.25451,0,0,0-.10645-.709,1.57666,1.57666,0,0,0-.3125-.55664,1.40685,1.40685,0,0,0-.50293-.3623A1.7073,1.7073,0,0,0,48.481,182.59961Z" fill="#fff"/>
    <path d="M56.08691,182.9248a.24726.24726,0,0,1-.23145.1377.43541.43541,0,0,1-.2124-.06934c-.0791-.0459-.17627-.09668-.29053-.15332a2.89792,2.89792,0,0,0-.40967-.15625,1.95523,1.95523,0,0,0-.5625-.07129,1.65948,1.65948,0,0,0-.50586.07129,1.24236,1.24236,0,0,0-.38477.19727.87152.87152,0,0,0-.24365.291.77923.77923,0,0,0-.08447.35938.59953.59953,0,0,0,.14063.40625,1.21928,1.21928,0,0,0,.37207.28125,3.265,3.265,0,0,0,.5249.209q.2937.09082.603.19336c.20654.06934.40723.14551.60352.22852a2.1805,2.1805,0,0,1,.5249.3125,1.438,1.438,0,0,1,.37158.459,1.40876,1.40876,0,0,1,.14063.65332,2.06274,2.06274,0,0,1-.15625.80957,1.75818,1.75818,0,0,1-.4624.64355,2.22888,2.22888,0,0,1-.75.42871,3.09694,3.09694,0,0,1-1.0249.15625,3.20157,3.20157,0,0,1-1.2002-.21582,3.02315,3.02315,0,0,1-.91211-.55371l.26221-.4248a.3849.3849,0,0,1,.11865-.125.33344.33344,0,0,1,.18164-.04395.41826.41826,0,0,1,.2373.08789q.12524.08789.30322.19336a2.3089,2.3089,0,0,0,.43115.19434,1.961,1.961,0,0,0,.63428.08691,1.7295,1.7295,0,0,0,.56885-.084,1.1874,1.1874,0,0,0,.40625-.22852.903.903,0,0,0,.24072-.33105,1.03276,1.03276,0,0,0,.07813-.39941.66193.66193,0,0,0-.14062-.43457,1.18847,1.18847,0,0,0-.37207-.29395,3.062,3.062,0,0,0-.52783-.21289q-.29736-.08936-.60645-.19043-.30908-.09961-.60645-.22754a2.15046,2.15046,0,0,1-.52783-.32227,1.44712,1.44712,0,0,1-.37207-.47852,1.54285,1.54285,0,0,1-.14062-.69043,1.68851,1.68851,0,0,1,.1499-.69629,1.71,1.71,0,0,1,.4375-.58789,2.16437,2.16437,0,0,1,.70654-.40332,2.8335,2.8335,0,0,1,.95605-.14941,3.03533,3.03533,0,0,1,1.12207.19629,2.66276,2.66276,0,0,1,.85938.541Z" fill="#fff"/>
    <path d="M62.14307,188.3125a1.52488,1.52488,0,0,1-1.15283-.41895,1.67051,1.67051,0,0,1-.40332-1.20605v-3.875h-.76221a.25214.25214,0,0,1-.16895-.05957.2321.2321,0,0,1-.06885-.18457V182.125l1.0376-.13184.25635-1.95605a.23741.23741,0,0,1,.08105-.15332.261.261,0,0,1,.17529-.05957h.5625v2.18164h1.8125v.80664h-1.8125v3.7998a.809.809,0,0,0,.19336.59375.67786.67786,0,0,0,.5.19336.88321.88321,0,0,0,.30322-.04687,1.33468,1.33468,0,0,0,.22217-.10254c.0625-.03809.11523-.07227.15918-.10352a.2084.2084,0,0,1,.11572-.04687.1912.1912,0,0,1,.15625.10645l.32471.53125a2.08632,2.08632,0,0,1-.69336.42188A2.36987,2.36987,0,0,1,62.14307,188.3125Z" fill="#fff"/>
    <path d="M67.41162,181.78125a3.2676,3.2676,0,0,1,1.25293.23047,2.64794,2.64794,0,0,1,.9502.65625,2.92356,2.92356,0,0,1,.6001,1.02832,4.456,4.456,0,0,1,0,2.69727,2.91475,2.91475,0,0,1-.6001,1.02441,2.59317,2.59317,0,0,1-.9502.65332,3.55044,3.55044,0,0,1-2.50635,0,2.62476,2.62476,0,0,1-.95312-.65332,2.92636,2.92636,0,0,1-.606-1.02441,4.38771,4.38771,0,0,1,0-2.69727,2.93506,2.93506,0,0,1,.606-1.02832,2.6807,2.6807,0,0,1,.95313-.65625A3.27012,3.27012,0,0,1,67.41162,181.78125Zm0,5.64941a1.62484,1.62484,0,0,0,1.3999-.62793,3.57232,3.57232,0,0,0,0-3.51562,1.62183,1.62183,0,0,0-1.3999-.63086,1.94244,1.94244,0,0,0-.8252.16211,1.54519,1.54519,0,0,0-.58447.46875,2.07362,2.07362,0,0,0-.34961.75293,4.03662,4.03662,0,0,0-.11572,1.00977,3.9936,3.9936,0,0,0,.11572,1.00586,2.04469,2.04469,0,0,0,.34961.74707,1.55655,1.55655,0,0,0,.58447.46582A1.94244,1.94244,0,0,0,67.41162,187.43066Z" fill="#fff"/>
    <path d="M74.38672,188.21191v-5.38086l-.7002-.08105a.56279.56279,0,0,1-.21533-.09766.22379.22379,0,0,1-.08447-.19043v-.45605h1v-.6123a2.82357,2.82357,0,0,1,.15283-.96582,1.9654,1.9654,0,0,1,.4375-.71289,1.87041,1.87041,0,0,1,.68457-.44043,2.556,2.556,0,0,1,.8999-.14941,2.38492,2.38492,0,0,1,.7876.125l-.0249.55566a.14211.14211,0,0,1-.10645.15039,1.2284,1.2284,0,0,1-.28125.02441h-.19385a1.7113,1.7113,0,0,0-.52148.0752.98624.98624,0,0,0-.40332.24414,1.10346,1.10346,0,0,0-.25928.44336,2.2023,2.2023,0,0,0-.09082.68164v.58105h1.83154v.80664H75.50537v5.39941Z" fill="#fff"/>
    <path d="M79.79883,179.89355a.71012.71012,0,0,1-.06543.30273.86237.86237,0,0,1-.17529.25.7955.7955,0,0,1-.25293.17188.75316.75316,0,0,1-.30615.0625.73287.73287,0,0,1-.30322-.0625.80512.80512,0,0,1-.25-.17187.81613.81613,0,0,1-.17187-.25.73842.73842,0,0,1-.0625-.30273.78463.78463,0,0,1,.0625-.30957.816.816,0,0,1,.42188-.42773.73286.73286,0,0,1,.30322-.0625.75315.75315,0,0,1,.30615.0625.7955.7955,0,0,1,.25293.17188.83954.83954,0,0,1,.17529.25586A.75429.75429,0,0,1,79.79883,179.89355Zm-.25,1.9873v6.33105h-1.1123v-6.33105Z" fill="#fff"/>
    <path d="M81.47461,188.21191v-6.33105h.6626a.28345.28345,0,0,1,.2998.23145l.0874.6875a3.54886,3.54886,0,0,1,.92188-.7373,2.39878,2.39878,0,0,1,1.17822-.28125,2.27515,2.27515,0,0,1,.91553.17188,1.76313,1.76313,0,0,1,.6626.4873,2.154,2.154,0,0,1,.40332.75879,3.31788,3.31788,0,0,1,.13721.98145v4.03125h-1.1123v-4.03125a1.70429,1.70429,0,0,0-.32812-1.11523,1.2271,1.2271,0,0,0-1.00342-.39746,1.873,1.873,0,0,0-.92187.23828,3.04349,3.04349,0,0,0-.79053.64355v4.66211Z" fill="#fff"/>
    <path d="M89.87451,179.89355a.71012.71012,0,0,1-.06543.30273.86237.86237,0,0,1-.17529.25.7955.7955,0,0,1-.25293.17188.75316.75316,0,0,1-.30615.0625.73287.73287,0,0,1-.30322-.0625.80512.80512,0,0,1-.25-.17187.81613.81613,0,0,1-.17187-.25.73842.73842,0,0,1-.0625-.30273.78463.78463,0,0,1,.0625-.30957.816.816,0,0,1,.42188-.42773.73286.73286,0,0,1,.30322-.0625.75315.75315,0,0,1,.30615.0625.7955.7955,0,0,1,.25293.17188.83954.83954,0,0,1,.17529.25586A.75429.75429,0,0,1,89.87451,179.89355Zm-.25,1.9873v6.33105h-1.1123v-6.33105Z" fill="#fff"/>
    <path d="M95.1748,182.9248a.24726.24726,0,0,1-.23145.1377.43541.43541,0,0,1-.2124-.06934c-.0791-.0459-.17627-.09668-.29053-.15332a2.89793,2.89793,0,0,0-.40967-.15625,1.95523,1.95523,0,0,0-.5625-.07129,1.65948,1.65948,0,0,0-.50586.07129,1.24236,1.24236,0,0,0-.38477.19727.87152.87152,0,0,0-.24365.291.77923.77923,0,0,0-.08447.35938.59953.59953,0,0,0,.14063.40625,1.21928,1.21928,0,0,0,.37207.28125,3.265,3.265,0,0,0,.5249.209q.2937.09082.603.19336c.20654.06934.40723.14551.60352.22852a2.1805,2.1805,0,0,1,.5249.3125,1.438,1.438,0,0,1,.37158.459,1.40876,1.40876,0,0,1,.14063.65332,2.06274,2.06274,0,0,1-.15625.80957,1.75818,1.75818,0,0,1-.4624.64355,2.22888,2.22888,0,0,1-.75.42871,3.09694,3.09694,0,0,1-1.0249.15625,3.20157,3.20157,0,0,1-1.2002-.21582,3.02315,3.02315,0,0,1-.91211-.55371l.26221-.4248a.3849.3849,0,0,1,.11865-.125.33344.33344,0,0,1,.18164-.04395.41826.41826,0,0,1,.2373.08789q.12524.08789.30322.19336a2.3089,2.3089,0,0,0,.43115.19434,1.961,1.961,0,0,0,.63428.08691,1.7295,1.7295,0,0,0,.56885-.084,1.1874,1.1874,0,0,0,.40625-.22852.903.903,0,0,0,.24072-.33105,1.03276,1.03276,0,0,0,.07813-.39941.66193.66193,0,0,0-.14062-.43457,1.18847,1.18847,0,0,0-.37207-.29395,3.062,3.062,0,0,0-.52783-.21289q-.29736-.08936-.60645-.19043-.30908-.09961-.60645-.22754a2.15046,2.15046,0,0,1-.52783-.32227,1.44712,1.44712,0,0,1-.37207-.47852,1.54285,1.54285,0,0,1-.14062-.69043,1.68851,1.68851,0,0,1,.1499-.69629,1.71,1.71,0,0,1,.4375-.58789,2.16437,2.16437,0,0,1,.70654-.40332,2.8335,2.8335,0,0,1,.95605-.14941,3.03533,3.03533,0,0,1,1.12207.19629,2.66276,2.66276,0,0,1,.85938.541Z" fill="#fff"/>
    <path d="M96.937,188.21191v-9.20605h1.1123v3.72461a3.42575,3.42575,0,0,1,.8999-.69043,2.41133,2.41133,0,0,1,1.1377-.25879,2.27515,2.27515,0,0,1,.91553.17188,1.76314,1.76314,0,0,1,.6626.4873,2.154,2.154,0,0,1,.40332.75879,3.31788,3.31788,0,0,1,.13721.98145v4.03125h-1.1123v-4.03125a1.70429,1.70429,0,0,0-.32812-1.11523,1.2271,1.2271,0,0,0-1.00342-.39746,1.873,1.873,0,0,0-.92187.23828,3.04349,3.04349,0,0,0-.79053.64355v4.66211Z" fill="#fff"/>
    <path d="M106.2251,188.21191v-9.20605h1.1123v3.72461a3.42575,3.42575,0,0,1,.8999-.69043,2.41133,2.41133,0,0,1,1.1377-.25879,2.27515,2.27515,0,0,1,.91553.17188,1.76313,1.76313,0,0,1,.6626.4873,2.154,2.154,0,0,1,.40332.75879,3.31788,3.31788,0,0,1,.13721.98145v4.03125h-1.1123v-4.03125a1.70429,1.70429,0,0,0-.32812-1.11523,1.2271,1.2271,0,0,0-1.00342-.39746,1.873,1.873,0,0,0-.92187.23828,3.04349,3.04349,0,0,0-.79053.64355v4.66211Z" fill="#fff"/>
    <path d="M114.625,179.89355a.71013.71013,0,0,1-.06543.30273.86237.86237,0,0,1-.17529.25.7955.7955,0,0,1-.25293.17188.75316.75316,0,0,1-.30615.0625.73287.73287,0,0,1-.30322-.0625.80512.80512,0,0,1-.25-.17187.81613.81613,0,0,1-.17187-.25.73842.73842,0,0,1-.0625-.30273.78463.78463,0,0,1,.0625-.30957.816.816,0,0,1,.42188-.42773.73286.73286,0,0,1,.30322-.0625.75315.75315,0,0,1,.30615.0625.7955.7955,0,0,1,.25293.17188.83954.83954,0,0,1,.17529.25586A.7543.7543,0,0,1,114.625,179.89355Zm-.25,1.9873v6.33105h-1.1123v-6.33105Z" fill="#fff"/>
    <path d="M118.43115,181.77441a3.138,3.138,0,0,1,.77148.09082,2.44569,2.44569,0,0,1,.65332.26563h1.71875v.41211c0,.1377-.0874.22559-.2627.2627l-.71875.10059a1.92344,1.92344,0,0,1,.21289.90625,1.94786,1.94786,0,0,1-.17822.83984,1.91023,1.91023,0,0,1-.49365.64746,2.2217,2.2217,0,0,1-.75.41211,3.02512,3.02512,0,0,1-.95312.14355,3.2289,3.2289,0,0,1-.83789-.10547,1.04219,1.04219,0,0,0-.30273.26855.483.483,0,0,0-.10352.28125.37933.37933,0,0,0,.18164.34082,1.28435,1.28435,0,0,0,.481.165,5.155,5.155,0,0,0,.68115.0625q.38159.01318.77832.041a7.225,7.225,0,0,1,.77832.09668,2.4075,2.4075,0,0,1,.68115.22461,1.1887,1.1887,0,0,1,.6626,1.14453,1.65517,1.65517,0,0,1-.20312.78711,2.13292,2.13292,0,0,1-.58447.67773,3.02065,3.02065,0,0,1-.93115.47559,4.04769,4.04769,0,0,1-1.24414.17773,4.78913,4.78913,0,0,1-1.21533-.1377,2.81558,2.81558,0,0,1-.86572-.36816,1.61009,1.61009,0,0,1-.51562-.53418,1.2684,1.2684,0,0,1-.17187-.63477,1.14612,1.14612,0,0,1,.29688-.79687A2.03192,2.03192,0,0,1,116.812,187.5a1.12124,1.12124,0,0,1-.42773-.335.9001.9001,0,0,1-.15967-.55957.87753.87753,0,0,1,.05029-.28418,1.109,1.109,0,0,1,.15283-.29,1.64253,1.64253,0,0,1,.603-.50684,1.97252,1.97252,0,0,1-.73437-.69629,1.91378,1.91378,0,0,1-.26562-1.01562,1.94915,1.94915,0,0,1,.17822-.84082,1.85685,1.85685,0,0,1,.49707-.64355,2.2741,2.2741,0,0,1,.75928-.41016A3.10413,3.10413,0,0,1,118.43115,181.77441Zm1.97461,6.78125a.54272.54272,0,0,0-.13086-.38086.84912.84912,0,0,0-.35645-.22168,2.56288,2.56288,0,0,0-.51855-.11621q-.29443-.03662-.61914-.05273c-.21631-.01074-.4375-.02246-.66211-.03418a6.17991,6.17991,0,0,1-.644-.06934,1.81821,1.81821,0,0,0-.57812.41309.83158.83158,0,0,0-.22168.58105.76063.76063,0,0,0,.10938.39648.93024.93024,0,0,0,.33447.31934,1.967,1.967,0,0,0,.56543.21191,3.58883,3.58883,0,0,0,.80322.07813,3.66676,3.66676,0,0,0,.80615-.08105,1.99767,1.99767,0,0,0,.603-.23145,1.13509,1.13509,0,0,0,.37842-.35645A.82969.82969,0,0,0,120.40576,188.55566Zm-1.97461-3.4375a1.75133,1.75133,0,0,0,.59668-.09375,1.19785,1.19785,0,0,0,.43457-.2627,1.0714,1.0714,0,0,0,.26221-.40234,1.45783,1.45783,0,0,0,.0874-.51562,1.23371,1.23371,0,0,0-.353-.92578,1.69976,1.69976,0,0,0-2.0498,0,1.23371,1.23371,0,0,0-.353.92578,1.41563,1.41563,0,0,0,.09033.51563,1.10337,1.10337,0,0,0,.26563.40234,1.19965,1.19965,0,0,0,.43115.2627A1.70521,1.70521,0,0,0,118.43115,185.11816Z" fill="#fff"/>
    <path d="M122.64941,188.21191v-9.20605h1.1123v3.72461a3.42575,3.42575,0,0,1,.8999-.69043,2.41133,2.41133,0,0,1,1.1377-.25879,2.27515,2.27515,0,0,1,.91553.17188,1.76313,1.76313,0,0,1,.6626.4873,2.154,2.154,0,0,1,.40332.75879,3.31788,3.31788,0,0,1,.13721.98145v4.03125h-1.1123v-4.03125a1.70429,1.70429,0,0,0-.32812-1.11523,1.2271,1.2271,0,0,0-1.00342-.39746,1.873,1.873,0,0,0-.92187.23828,3.04348,3.04348,0,0,0-.79053.64355v4.66211Z" fill="#fff"/>
    <path d="M135.5625,182.9248a.24726.24726,0,0,1-.23145.1377.43541.43541,0,0,1-.2124-.06934c-.0791-.0459-.17627-.09668-.29053-.15332a2.89793,2.89793,0,0,0-.40967-.15625,1.95523,1.95523,0,0,0-.5625-.07129,1.65948,1.65948,0,0,0-.50586.07129,1.24236,1.24236,0,0,0-.38477.19727.87152.87152,0,0,0-.24365.291.77923.77923,0,0,0-.08447.35938.59953.59953,0,0,0,.14063.40625,1.21928,1.21928,0,0,0,.37207.28125,3.265,3.265,0,0,0,.5249.209q.2937.09082.603.19336c.20654.06934.40723.14551.60352.22852a2.1805,2.1805,0,0,1,.5249.3125,1.438,1.438,0,0,1,.37158.459,1.40876,1.40876,0,0,1,.14063.65332,2.06274,2.06274,0,0,1-.15625.80957,1.75818,1.75818,0,0,1-.4624.64355,2.22888,2.22888,0,0,1-.75.42871,3.09694,3.09694,0,0,1-1.0249.15625,3.20157,3.20157,0,0,1-1.2002-.21582,3.02315,3.02315,0,0,1-.91211-.55371l.26221-.4248a.3849.3849,0,0,1,.11865-.125.33344.33344,0,0,1,.18164-.04395.41826.41826,0,0,1,.2373.08789q.12524.08789.30322.19336a2.3089,2.3089,0,0,0,.43115.19434,1.961,1.961,0,0,0,.63428.08691,1.7295,1.7295,0,0,0,.56885-.084,1.1874,1.1874,0,0,0,.40625-.22852.903.903,0,0,0,.24072-.33105,1.03276,1.03276,0,0,0,.07813-.39941.66193.66193,0,0,0-.14062-.43457,1.18847,1.18847,0,0,0-.37207-.29395,3.062,3.062,0,0,0-.52783-.21289q-.29736-.08936-.60645-.19043-.30908-.09961-.60645-.22754a2.15046,2.15046,0,0,1-.52783-.32227,1.44712,1.44712,0,0,1-.37207-.47852,1.54285,1.54285,0,0,1-.14062-.69043,1.68851,1.68851,0,0,1,.1499-.69629,1.71,1.71,0,0,1,.4375-.58789,2.16437,2.16437,0,0,1,.70654-.40332,2.8335,2.8335,0,0,1,.95605-.14941,3.03533,3.03533,0,0,1,1.12207.19629,2.66276,2.66276,0,0,1,.85938.541Z" fill="#fff"/>
    <path d="M141.64355,183.00586a.51913.51913,0,0,1-.1001.10645.24225.24225,0,0,1-.144.03711.35324.35324,0,0,1-.20312-.07812,3.02546,3.02546,0,0,0-.27783-.17187,2.3849,2.3849,0,0,0-.40967-.17187,2.16842,2.16842,0,0,0-1.40918.08789,1.58773,1.58773,0,0,0-.59668.47754,2.1733,2.1733,0,0,0-.36279.75684,3.75893,3.75893,0,0,0-.12158.99316,3.63659,3.63659,0,0,0,.13086,1.02246,2.21647,2.21647,0,0,0,.36914.75,1.55852,1.55852,0,0,0,.57813.46191,1.78129,1.78129,0,0,0,.76563.16016,1.93365,1.93365,0,0,0,.66846-.09766,2.02885,2.02885,0,0,0,.4375-.21484,3.24363,3.24363,0,0,0,.2876-.21582.347.347,0,0,1,.2251-.09668.23584.23584,0,0,1,.2124.10547l.3125.40625a2.40215,2.40215,0,0,1-1.03125.74121,3.65756,3.65756,0,0,1-1.30615.23438,2.76951,2.76951,0,0,1-1.103-.21875,2.508,2.508,0,0,1-.88477-.63477,2.99628,2.99628,0,0,1-.59033-1.02148,4.1009,4.1009,0,0,1-.21582-1.38184,4.1733,4.1733,0,0,1,.19678-1.30566,2.95455,2.95455,0,0,1,.5752-1.03418,2.60634,2.60634,0,0,1,.93457-.67871,3.15341,3.15341,0,0,1,1.2749-.24316,3.01154,3.01154,0,0,1,1.1748.21484,2.83291,2.83291,0,0,1,.90625.60938Z" fill="#fff"/>
    <path d="M143.12451,188.21191v-9.20605h1.1123v3.72461a3.42575,3.42575,0,0,1,.8999-.69043,2.41133,2.41133,0,0,1,1.1377-.25879,2.27515,2.27515,0,0,1,.91553.17188,1.76314,1.76314,0,0,1,.6626.4873,2.154,2.154,0,0,1,.40332.75879,3.31788,3.31788,0,0,1,.13721.98145v4.03125h-1.1123v-4.03125a1.70429,1.70429,0,0,0-.32812-1.11523,1.2271,1.2271,0,0,0-1.00342-.39746,1.873,1.873,0,0,0-.92187.23828,3.04348,3.04348,0,0,0-.79053.64355v4.66211Z" fill="#fff"/>
    <path d="M152.59961,181.78125a3.26936,3.26936,0,0,1,1.25293.23047,2.64794,2.64794,0,0,1,.9502.65625,2.93,2.93,0,0,1,.59961,1.02832,4.456,4.456,0,0,1,0,2.69727,2.92117,2.92117,0,0,1-.59961,1.02441,2.59317,2.59317,0,0,1-.9502.65332,3.55178,3.55178,0,0,1-2.50684,0,2.627,2.627,0,0,1-.95264-.65332,2.92636,2.92636,0,0,1-.606-1.02441,4.38771,4.38771,0,0,1,0-2.69727,2.93506,2.93506,0,0,1,.606-1.02832,2.68312,2.68312,0,0,1,.95264-.65625A3.27088,3.27088,0,0,1,152.59961,181.78125Zm0,5.64941a1.62391,1.62391,0,0,0,1.39941-.62793,3.569,3.569,0,0,0,0-3.51562,1.6209,1.6209,0,0,0-1.39941-.63086,1.94089,1.94089,0,0,0-.8252.16211,1.54674,1.54674,0,0,0-.585.46875,2.07309,2.07309,0,0,0-.34912.75293,4.03662,4.03662,0,0,0-.11572,1.00977,3.9936,3.9936,0,0,0,.11572,1.00586,2.04415,2.04415,0,0,0,.34912.74707,1.55813,1.55813,0,0,0,.585.46582A1.9409,1.9409,0,0,0,152.59961,187.43066Z" fill="#fff"/>
    <path d="M159.51172,181.78125a3.26584,3.26584,0,0,1,1.25293.23047,2.64794,2.64794,0,0,1,.9502.65625,2.91716,2.91716,0,0,1,.60059,1.02832,4.456,4.456,0,0,1,0,2.69727,2.90837,2.90837,0,0,1-.60059,1.02441,2.59317,2.59317,0,0,1-.9502.65332,3.54911,3.54911,0,0,1-2.50586,0,2.62064,2.62064,0,0,1-.95312-.65332,2.92,2.92,0,0,1-.60645-1.02441,4.39733,4.39733,0,0,1,0-2.69727,2.92867,2.92867,0,0,1,.60645-1.02832,2.67639,2.67639,0,0,1,.95313-.65625A3.26936,3.26936,0,0,1,159.51172,181.78125Zm0,5.64941a1.62577,1.62577,0,0,0,1.40039-.62793,3.57561,3.57561,0,0,0,0-3.51562,1.62275,1.62275,0,0,0-1.40039-.63086,1.944,1.944,0,0,0-.8252.16211,1.54364,1.54364,0,0,0-.584.46875,2.06563,2.06563,0,0,0-.34961.75293,4.03555,4.03555,0,0,0-.11621,1.00977,3.9925,3.9925,0,0,0,.11621,1.00586,2.03683,2.03683,0,0,0,.34961.74707,1.555,1.555,0,0,0,.584.46582A1.944,1.944,0,0,0,159.51172,187.43066Z" fill="#fff"/>
    <path d="M165.09961,179.00586v9.20605h-1.1123v-9.20605Z" fill="#fff"/>
    <path d="M166.66211,187.52441a.80083.80083,0,0,1,.22168-.55566.77158.77158,0,0,1,.24707-.16895.78108.78108,0,0,1,.6123,0,.79555.79555,0,0,1,.25.16895.75648.75648,0,0,1,.166.25.824.824,0,0,1,0,.61523.775.775,0,0,1-.166.24707.754.754,0,0,1-.25.165.81649.81649,0,0,1-.6123,0,.73177.73177,0,0,1-.24707-.165.79748.79748,0,0,1-.16211-.24707A.78112.78112,0,0,1,166.66211,187.52441Z" fill="#fff"/>
  </g>
</svg>
