<svg xmlns="http://www.w3.org/2000/svg" viewBox="0 0 300 250">
  <title>Artboard 1</title>
  <g opacity="0.85">
    <path d="M32.27832,61.06934l-1.104,8.92822H25.958l1.104-8.87988-6-14.43213h4.64014a1.59489,1.59489,0,0,1,1.04785.312,1.81128,1.81128,0,0,1,.55225.82422L29.542,54.87744q.22412.70459.4082,1.36035.18384.65625.312,1.26367.304-.60791.67188-1.25586.36768-.64819.78418-1.36816L35.686,47.82178a2.54614,2.54614,0,0,1,.7041-.78418,1.8006,1.8006,0,0,1,1.12012-.35205h4.31982Z" fill="#fff"/>
    <path d="M63.07764,56.8457a14.5904,14.5904,0,0,1-.43994,3.61572,13.90146,13.90146,0,0,1-1.248,3.21631A12.93852,12.93852,0,0,1,59.438,66.38135a11.96828,11.96828,0,0,1-2.56836,2.07227,12.66087,12.66087,0,0,1-3.08789,1.32813,12.78942,12.78942,0,0,1-3.50391.47168,10.15108,10.15108,0,0,1-4.13623-.80762,9.17731,9.17731,0,0,1-3.11182-2.208,9.6488,9.6488,0,0,1-1.96-3.29639,12.01243,12.01243,0,0,1-.68018-4.08789,14.67117,14.67117,0,0,1,.44043-3.624,13.85456,13.85456,0,0,1,1.24756-3.22412,12.78059,12.78059,0,0,1,1.96045-2.70361,12.17249,12.17249,0,0,1,2.57568-2.07227,12.69864,12.69864,0,0,1,3.08789-1.32812,12.85,12.85,0,0,1,3.52-.47168,10.10939,10.10939,0,0,1,4.12012.80811,9.04135,9.04135,0,0,1,3.104,2.21582,9.79127,9.79127,0,0,1,1.95215,3.312A12.04786,12.04786,0,0,1,63.07764,56.8457Zm-5.34375.12793a9.29846,9.29846,0,0,0-.34424-2.61621,5.8718,5.8718,0,0,0-1.00781-2.01562,4.51636,4.51636,0,0,0-1.624-1.29639,5.015,5.015,0,0,0-2.17578-.45605,6.06885,6.06885,0,0,0-2.86426.66406,6.29952,6.29952,0,0,0-2.15186,1.86426,8.76838,8.76838,0,0,0-1.35986,2.8877,13.84579,13.84579,0,0,0-.47217,3.73633,9.41673,9.41673,0,0,0,.33594,2.60791,5.85345,5.85345,0,0,0,.98389,2,4.41115,4.41115,0,0,0,1.60791,1.28809,5.05479,5.05479,0,0,0,2.19238.45605,6.02854,6.02854,0,0,0,5.03174-2.51221,8.89226,8.89226,0,0,0,1.36816-2.87988A13.557,13.557,0,0,0,57.73389,56.97363Z" fill="#fff"/>
    <path d="M73.25391,65.90137a4.12042,4.12042,0,0,0,1.77588-.376,4.26573,4.26573,0,0,0,1.40771-1.07178,5.88947,5.88947,0,0,0,1.0083-1.688,8.60516,8.60516,0,0,0,.54395-2.22412l1.6958-13.856h5.21631l-1.69629,13.856a12.70646,12.70646,0,0,1-1.12793,3.91211,10.27373,10.27373,0,0,1-2.22412,3.07178,9.9532,9.9532,0,0,1-3.17578,2.0083,10.633,10.633,0,0,1-3.96826.71973,9.58157,9.58157,0,0,1-3.48-.5918,6.95133,6.95133,0,0,1-4.168-4.25586,9.6737,9.6737,0,0,1-.54395-3.312,13.04324,13.04324,0,0,1,.09619-1.55225l1.66406-13.856h5.21582l-1.6958,13.856q-.03223.28784-.04834.56787c-.01074.187-.01562.37109-.01562.55225a4.84747,4.84747,0,0,0,.90381,3.11182A3.15543,3.15543,0,0,0,73.25391,65.90137Z" fill="#fff"/>
    <path d="M110.14941,69.99756h-5.248l1.21582-9.91992h-8.416l-1.21582,9.91992h-5.248l2.87988-23.312h5.248l-1.21582,9.83984h8.416l1.21582-9.83984h5.248Z" fill="#fff"/>
    <path d="M133.41309,69.99756h-4.03174a1.73141,1.73141,0,0,1-1.08008-.312,1.24122,1.24122,0,0,1-.48828-.82422l-.71973-4.19189h-7.91992l-1.728,4.19189a1.74224,1.74224,0,0,1-.688.792,1.98983,1.98983,0,0,1-1.13623.34424h-4.0957l11.13574-23.312h5.34424Zm-12.78369-8.87988h5.856l-1.13623-6.65625q-.14355-.8313-.312-1.688-.16772-.85547-.27979-1.56006-.12817.38452-.33594.87207-.20874.48853-.4082.95215-.2.46436-.38379.86377-.18457.40063-.26416.59229Z" fill="#fff"/>
    <path d="M135.90918,46.68555h4.19189a1.66935,1.66935,0,0,1,1.07178.31982,1.34511,1.34511,0,0,1,.49609.81641l2.43213,12.84766q.14355.78442.34375,1.76807.2.98438.32813,1.99219.33618-1.00854.76807-1.97607.43213-.96826.76807-1.78418L151.749,47.82178a1.80682,1.80682,0,0,1,.27246-.416,1.8863,1.8863,0,0,1,.42383-.36816,2.31153,2.31153,0,0,1,.543-.25586,1.99,1.99,0,0,1,.61719-.09619h4.22363L146.373,69.99756h-4.73584Z" fill="#fff"/>
    <path d="M172.86914,50.70166h-8.625L163.541,56.3335h6.60742l-.51172,3.87207h-6.57617l-.70312,5.77588h8.6875l-.51172,4.01611H156.61328l2.87891-23.312h13.88867Z" fill="#fff"/>
    <path d="M33.3501,90.32178q.25562-.52808.53613-1.04.27979-.512.584-1.02441l7.13574-12.272a1.34315,1.34315,0,0,1,.80029-.67187,3.609,3.609,0,0,1,.92773-.12793h4.09619l-2.87988,23.312H39.97412L41.606,84.92969q.04834-.43213.15234-.95215.10327-.52.23193-1.08008l-7.0083,12.03223a2.05216,2.05216,0,0,1-.832.80811,2.40851,2.40851,0,0,1-1.11963.26367h-.7041a2.03257,2.03257,0,0,1-1.064-.272,1.41764,1.41764,0,0,1-.63184-.7998l-4.09619-12.064q-.03223.54419-.05615,1.05566-.02417.5127-.07178.92822l-1.6001,13.64795H20.19824l2.87988-23.312H27.0459q.33618,0,.59229.01611a1.6625,1.6625,0,0,1,.45605.08789.83659.83659,0,0,1,.34375.23193,1.25756,1.25756,0,0,1,.24023.46387l4.0957,12.272Q33.11011,89.26587,33.3501,90.32178Z" fill="#fff"/>
    <path d="M70.69385,85.3457a14.5904,14.5904,0,0,1-.43994,3.61572,13.90146,13.90146,0,0,1-1.248,3.21631,12.93852,12.93852,0,0,1-1.95166,2.70361,11.96828,11.96828,0,0,1-2.56836,2.07227,12.66087,12.66087,0,0,1-3.08789,1.32813,12.78942,12.78942,0,0,1-3.50391.47168,10.15108,10.15108,0,0,1-4.13623-.80762,9.17731,9.17731,0,0,1-3.11182-2.208,9.6488,9.6488,0,0,1-1.96-3.29639,12.01243,12.01243,0,0,1-.68018-4.08789,14.67117,14.67117,0,0,1,.44043-3.624,13.85456,13.85456,0,0,1,1.24756-3.22412,12.78059,12.78059,0,0,1,1.96045-2.70361A12.17249,12.17249,0,0,1,54.23,76.72949a12.69864,12.69864,0,0,1,3.08789-1.32812,12.85,12.85,0,0,1,3.52-.47168,10.10939,10.10939,0,0,1,4.12012.80811,9.04135,9.04135,0,0,1,3.104,2.21582,9.79127,9.79127,0,0,1,1.95215,3.312A12.04786,12.04786,0,0,1,70.69385,85.3457Zm-5.34375.12793a9.29846,9.29846,0,0,0-.34424-2.61621A5.8718,5.8718,0,0,0,63.998,80.8418a4.51636,4.51636,0,0,0-1.624-1.29639,5.015,5.015,0,0,0-2.17578-.45605,6.06885,6.06885,0,0,0-2.86426.66406,6.29952,6.29952,0,0,0-2.15186,1.86426,8.76838,8.76838,0,0,0-1.35986,2.8877,13.84579,13.84579,0,0,0-.47217,3.73633,9.41673,9.41673,0,0,0,.33594,2.60791,5.85345,5.85345,0,0,0,.98389,2,4.41115,4.41115,0,0,0,1.60791,1.28809,5.05479,5.05479,0,0,0,2.19238.45605A6.02854,6.02854,0,0,0,63.502,92.08154a8.89226,8.89226,0,0,0,1.36816-2.87988A13.557,13.557,0,0,0,65.3501,85.47363Z" fill="#fff"/>
    <path d="M77.58984,89.79346l-1.07178,8.7041H71.334l2.84766-23.312h7.07227a12.76988,12.76988,0,0,1,3.65576.45605,6.95433,6.95433,0,0,1,2.47217,1.25586,4.75131,4.75131,0,0,1,1.3999,1.896,6.31824,6.31824,0,0,1,.43994,2.376,8.52544,8.52544,0,0,1-.34375,2.44824,7.67729,7.67729,0,0,1-1,2.12012A7.52829,7.52829,0,0,1,86.27,87.44971a8.65233,8.65233,0,0,1-2.168,1.22363,5.09484,5.09484,0,0,1,.90381.65625,2.64781,2.64781,0,0,1,.66406.96l3.39209,8.208h-4.7041a2.19673,2.19673,0,0,1-1.104-.25586,1.36281,1.36281,0,0,1-.624-.73633l-2.52783-6.896a1.24983,1.24983,0,0,0-.47217-.63184,1.67159,1.67159,0,0,0-.87207-.18408ZM78.918,79.07373l-.87988,7.11963h1.90381a4.72346,4.72346,0,0,0,1.90381-.34375,3.455,3.455,0,0,0,1.272-.91992,3.52543,3.52543,0,0,0,.7041-1.34424,5.936,5.936,0,0,0,.21631-1.61572,3.50853,3.50853,0,0,0-.19238-1.19238,2.25253,2.25253,0,0,0-.59961-.91162,2.82157,2.82157,0,0,0-1.02441-.584,4.5323,4.5323,0,0,0-1.44775-.208Z" fill="#fff"/>
    <path d="M107.23779,79.20166h-8.624l-.7041,5.63184h6.6084l-.51221,3.87207H97.42969l-.70361,5.77588h8.688l-.51221,4.01611H90.98193l2.87988-23.312H107.75Z" fill="#fff"/>
    <path d="M132.64551,98.49756h-5.248l1.21582-9.91992h-8.416l-1.21582,9.91992h-5.248l2.87988-23.312h5.248l-1.21582,9.83984h8.416l1.21582-9.83984h5.248Z" fill="#fff"/>
    <path d="M152.26172,79.20166h-8.62451l-.7041,5.63184h6.6084l-.51221,3.87207h-6.57617l-.70361,5.77588h8.688l-.51221,4.01611H136.00537l2.87988-23.312h13.88818Z" fill="#fff"/>
    <path d="M158.30859,94.3374h7.83984l-.51172,4.16016H152.58105l2.87988-23.312h5.21582Z" fill="#fff"/>
    <path d="M174.02148,90.6416l-.96094,7.856H167.877l2.84766-23.312h7.71289a11.10544,11.10544,0,0,1,3.55957.50391,6.65625,6.65625,0,0,1,2.43164,1.39209,5.38227,5.38227,0,0,1,1.39941,2.09619,7.41332,7.41332,0,0,1,.44922,2.59961,10.36925,10.36925,0,0,1-.584,3.52832,7.42708,7.42708,0,0,1-1.78516,2.80811,8.31039,8.31039,0,0,1-3.03906,1.856,12.698,12.698,0,0,1-4.35156.67188Zm1.43945-11.56787-.94336,7.64795h2.51172a4.74168,4.74168,0,0,0,1.87891-.32812,3.07846,3.07846,0,0,0,1.23242-.92822,3.75674,3.75674,0,0,0,.67969-1.43164,7.513,7.513,0,0,0,.209-1.82422,4.1517,4.1517,0,0,0-.18457-1.26367,2.52163,2.52163,0,0,0-1.53613-1.64014,3.73581,3.73581,0,0,0-1.38379-.23193Z" fill="#fff"/>
    <path d="M38.79,103.68555l-.54395,4.11182H32.32617L29.958,126.99707H24.77393l2.33643-19.19971H21.1582l.51172-4.11182Z" fill="#fff"/>
    <path d="M56.77393,126.99707h-5.248l1.21582-9.91943h-8.416l-1.21582,9.91943h-5.248l2.87988-23.31152h5.248l-1.21582,9.83984h8.416l1.21582-9.83984h5.248Z" fill="#fff"/>
    <path d="M80.0376,126.99707H76.00586a1.73129,1.73129,0,0,1-1.08008-.31152,1.24122,1.24122,0,0,1-.48828-.82422l-.71973-4.19189H65.79785l-1.728,4.19189a1.74466,1.74466,0,0,1-.688.792,1.99305,1.99305,0,0,1-1.13623.34375H58.1499l11.13574-23.31152h5.34424Zm-12.78369-8.87939h5.856l-1.13623-6.65625q-.14355-.8313-.312-1.688-.16772-.85547-.27979-1.56006-.12817.38452-.33594.87207-.20874.48853-.4082.95215-.2.46436-.38379.86377-.18457.40063-.26416.59229Z" fill="#fff"/>
    <path d="M87.54932,103.70947a1.26038,1.26038,0,0,1,.416.1123,1.05131,1.05131,0,0,1,.32813.24756,2.35463,2.35463,0,0,1,.28809.416l8.17578,14.40039q.03223-.5603.09619-1.07227.06372-.512.11182-.96l1.56836-13.168h4.60791l-2.87988,23.31152H97.5415a2.5115,2.5115,0,0,1-1.00781-.17578,1.52241,1.52241,0,0,1-.688-.6875l-8.144-14.38428q-.03223.44824-.07227.86426-.04028.416-.07178.78369l-1.6001,13.59961H81.34961l2.87988-23.31152h2.752A5.6195,5.6195,0,0,1,87.54932,103.70947Z" fill="#fff"/>
    <path d="M121.87744,118.06934l-1.104,8.92773h-5.21631l1.104-8.87939-6-14.43213h4.64014a1.59489,1.59489,0,0,1,1.04785.312,1.81128,1.81128,0,0,1,.55225.82422l2.23975,7.05566q.22412.70459.4082,1.36035.18384.65625.312,1.26367.304-.60791.67188-1.25586.36768-.64819.78418-1.36816l3.96777-7.05566a2.54614,2.54614,0,0,1,.7041-.78418,1.8006,1.8006,0,0,1,1.12012-.35205h4.31982Z" fill="#fff"/>
    <path d="M152.67676,113.8457a14.56741,14.56741,0,0,1-.44043,3.61572,13.87854,13.87854,0,0,1-1.24756,3.21631,12.93852,12.93852,0,0,1-1.95166,2.70361,11.96829,11.96829,0,0,1-2.56836,2.07227,12.65967,12.65967,0,0,1-3.08789,1.32764,12.78942,12.78942,0,0,1-3.50391.47168,10.143,10.143,0,0,1-4.13623-.80762,9.16942,9.16942,0,0,1-3.11182-2.20752,9.6488,9.6488,0,0,1-1.96-3.29639,12.01243,12.01243,0,0,1-.68018-4.08789,14.67117,14.67117,0,0,1,.44043-3.624,13.85457,13.85457,0,0,1,1.24756-3.22412,12.78059,12.78059,0,0,1,1.96045-2.70361,12.17249,12.17249,0,0,1,2.57568-2.07227,12.69864,12.69864,0,0,1,3.08789-1.32812,12.85,12.85,0,0,1,3.52-.47168,10.10939,10.10939,0,0,1,4.12012.80811,9.04135,9.04135,0,0,1,3.104,2.21582,9.79921,9.79921,0,0,1,1.95215,3.312A12.04786,12.04786,0,0,1,152.67676,113.8457Zm-5.34375.12793a9.29846,9.29846,0,0,0-.34424-2.61621,5.8718,5.8718,0,0,0-1.00781-2.01562,4.51636,4.51636,0,0,0-1.624-1.29639,5.015,5.015,0,0,0-2.17578-.45605,6.06885,6.06885,0,0,0-2.86426.66406,6.29952,6.29952,0,0,0-2.15186,1.86426,8.76837,8.76837,0,0,0-1.35986,2.8877,13.84579,13.84579,0,0,0-.47217,3.73633,9.41673,9.41673,0,0,0,.33594,2.60791,5.85346,5.85346,0,0,0,.98389,2,4.41115,4.41115,0,0,0,1.60791,1.28809,5.05479,5.05479,0,0,0,2.19238.45605,6.02854,6.02854,0,0,0,5.03174-2.51221,8.89226,8.89226,0,0,0,1.36816-2.87988A13.557,13.557,0,0,0,147.333,113.97363Z" fill="#fff"/>
    <path d="M162.85352,122.90137a4.11668,4.11668,0,0,0,1.77539-.376,4.27748,4.27748,0,0,0,1.4082-1.07178,5.92178,5.92178,0,0,0,1.00781-1.688,8.625,8.625,0,0,0,.54395-2.22412l1.69629-13.856H174.501l-1.69629,13.856a12.71991,12.71991,0,0,1-1.12793,3.91211,10.28082,10.28082,0,0,1-2.22363,3.07178,9.94884,9.94884,0,0,1-3.17578,2.00781,10.62767,10.62767,0,0,1-3.96875.71973,9.58984,9.58984,0,0,1-3.48047-.5918,6.95224,6.95224,0,0,1-4.168-4.25537,9.68552,9.68552,0,0,1-.543-3.312,12.93861,12.93861,0,0,1,.0957-1.55225l1.66406-13.856h5.21582l-1.69629,13.856q-.03223.28784-.04785.56787c-.01074.187-.01562.37109-.01562.55225a4.85315,4.85315,0,0,0,.90332,3.11182A3.15739,3.15739,0,0,0,162.85352,122.90137Z" fill="#fff"/>
    <path d="M26.4541,146.793l-1.07178,8.7041H20.19824l2.84766-23.31152h7.07227a12.75263,12.75263,0,0,1,3.65576.45605,6.94639,6.94639,0,0,1,2.47217,1.25586A4.74647,4.74647,0,0,1,37.646,135.793a6.32186,6.32186,0,0,1,.43994,2.376,8.523,8.523,0,0,1-.34375,2.44824,7.67069,7.67069,0,0,1-1,2.12012,7.52829,7.52829,0,0,1-1.60791,1.71191,8.63721,8.63721,0,0,1-2.168,1.22363,5.09484,5.09484,0,0,1,.90381.65625,2.64781,2.64781,0,0,1,.66406.96l3.39209,8.208h-4.7041a2.19164,2.19164,0,0,1-1.104-.25586,1.3611,1.3611,0,0,1-.624-.73633l-2.52783-6.89551a1.24559,1.24559,0,0,0-.47217-.63184,1.66635,1.66635,0,0,0-.87207-.18457Zm1.32813-10.71973-.87988,7.12012h1.90381a4.72346,4.72346,0,0,0,1.90381-.34375,3.455,3.455,0,0,0,1.272-.91992,3.52748,3.52748,0,0,0,.7041-1.34473,5.93241,5.93241,0,0,0,.21631-1.61523,3.50653,3.50653,0,0,0-.19238-1.19238,2.25422,2.25422,0,0,0-.59961-.91211,2.82861,2.82861,0,0,0-1.02441-.584,4.5323,4.5323,0,0,0-1.44775-.208Z" fill="#fff"/>
    <path d="M56.10205,136.20117H47.478l-.7041,5.63184h6.6084l-.51221,3.87207H46.29395l-.70361,5.77637h8.688l-.51221,4.01563H39.84619l2.87988-23.31152H56.61426Z" fill="#fff"/>
    <path d="M76.32568,155.49707H72.29395a1.73129,1.73129,0,0,1-1.08008-.31152,1.24122,1.24122,0,0,1-.48828-.82422l-.71973-4.19238H62.08594l-1.728,4.19238a1.74466,1.74466,0,0,1-.688.792,1.99305,1.99305,0,0,1-1.13623.34375H54.438l11.13574-23.31152H70.918ZM63.542,146.61719h5.856l-1.13623-6.65625q-.14355-.83057-.312-1.6875-.16772-.85547-.27979-1.56055-.12817.38525-.33594.87207-.20874.48926-.4082.95215-.2.46436-.38379.86426-.18457.3999-.26416.5918Z" fill="#fff"/>
    <path d="M83.36572,151.33691h7.83984l-.51221,4.16016H77.6377l2.87988-23.31152H85.7334Z" fill="#fff"/>
    <path d="M98.62939,155.49707h-5.248l2.84814-23.31152h5.248Z" fill="#fff"/>
    <path d="M121.09326,132.18555l-.22412,1.56738a1.88582,1.88582,0,0,1-.2002.6084,4.95976,4.95976,0,0,1-.34375.55957l-11.77588,16.56055h9.856l-.51221,4.01563H101.25293l.19238-1.53613a1.89134,1.89134,0,0,1,.19971-.60742,5.13994,5.13994,0,0,1,.34424-.56055l11.792-16.5918h-9.32812l.51221-4.01562Z" fill="#fff"/>
    <path d="M136.58105,136.20117h-8.624l-.7041,5.63184h6.6084l-.51221,3.87207h-6.57617l-.70361,5.77637h8.688l-.51221,4.01563H120.3252l2.87988-23.31152h13.88818Z" fill="#fff"/>
    <path d="M136.58057,152.98535a2.65824,2.65824,0,0,1,.21631-1.07227,2.72873,2.72873,0,0,1,.5918-.86426,2.9247,2.9247,0,0,1,3.1123-.584,2.94821,2.94821,0,0,1,.896.584,2.65126,2.65126,0,0,1,.81592,1.93652,2.7128,2.7128,0,0,1-.21631,1.08008,2.62676,2.62676,0,0,1-.59961.87207,2.82247,2.82247,0,0,1-.896.57617,2.92611,2.92611,0,0,1-1.104.208,2.96594,2.96594,0,0,1-1.12012-.208,2.70168,2.70168,0,0,1-1.69629-2.52832Z" fill="#fff"/>
  </g>
</svg>
