<svg xmlns="http://www.w3.org/2000/svg" viewBox="0 0 300 250">
  <title>Artboard 1</title>
  <g opacity="0.85">
    <path d="M26.39795,46.70947a1.26039,1.26039,0,0,1,.416.1123,1.05131,1.05131,0,0,1,.32813.24756,2.35463,2.35463,0,0,1,.28809.416L35.606,61.88574q.03223-.5603.09619-1.07227.06372-.512.11182-.96l1.56836-13.168h4.60791l-2.87988,23.312H36.39014a2.5115,2.5115,0,0,1-1.00781-.17578,1.52371,1.52371,0,0,1-.688-.688l-8.144-14.38428q-.03223.44824-.07227.86426-.04028.416-.07178.78369l-1.6001,13.6001H20.19824l2.87988-23.312h2.752A5.6195,5.6195,0,0,1,26.39795,46.70947Z" fill="#fff"/>
    <path d="M65.25391,56.8457a14.5904,14.5904,0,0,1-.43994,3.61572,13.90146,13.90146,0,0,1-1.248,3.21631,12.93852,12.93852,0,0,1-1.95166,2.70361,11.96828,11.96828,0,0,1-2.56836,2.07227A12.66087,12.66087,0,0,1,55.958,69.78174a12.78942,12.78942,0,0,1-3.50391.47168,10.15108,10.15108,0,0,1-4.13623-.80762,9.17731,9.17731,0,0,1-3.11182-2.208,9.6488,9.6488,0,0,1-1.96-3.29639,12.01243,12.01243,0,0,1-.68018-4.08789,14.67117,14.67117,0,0,1,.44043-3.624,13.85456,13.85456,0,0,1,1.24756-3.22412,12.78059,12.78059,0,0,1,1.96045-2.70361A12.17249,12.17249,0,0,1,48.79,48.22949a12.69864,12.69864,0,0,1,3.08789-1.32812,12.85,12.85,0,0,1,3.52-.47168,10.10939,10.10939,0,0,1,4.12012.80811,9.04135,9.04135,0,0,1,3.104,2.21582,9.79127,9.79127,0,0,1,1.95215,3.312A12.04786,12.04786,0,0,1,65.25391,56.8457Zm-5.34375.12793a9.29846,9.29846,0,0,0-.34424-2.61621,5.8718,5.8718,0,0,0-1.00781-2.01562,4.51636,4.51636,0,0,0-1.624-1.29639,5.015,5.015,0,0,0-2.17578-.45605,6.06885,6.06885,0,0,0-2.86426.66406,6.29952,6.29952,0,0,0-2.15186,1.86426,8.76838,8.76838,0,0,0-1.35986,2.8877,13.84579,13.84579,0,0,0-.47217,3.73633,9.41673,9.41673,0,0,0,.33594,2.60791,5.85345,5.85345,0,0,0,.98389,2,4.41115,4.41115,0,0,0,1.60791,1.28809,5.05479,5.05479,0,0,0,2.19238.45605A6.02854,6.02854,0,0,0,58.062,63.58154a8.89226,8.89226,0,0,0,1.36816-2.87988A13.557,13.557,0,0,0,59.91016,56.97363Z" fill="#fff"/>
    <path d="M42.98193,85.3457a14.5904,14.5904,0,0,1-.43994,3.61572,13.90146,13.90146,0,0,1-1.248,3.21631,12.93852,12.93852,0,0,1-1.95166,2.70361,11.96828,11.96828,0,0,1-2.56836,2.07227A12.66087,12.66087,0,0,1,33.686,98.28174a12.78942,12.78942,0,0,1-3.50391.47168,10.15108,10.15108,0,0,1-4.13623-.80762,9.17731,9.17731,0,0,1-3.11182-2.208,9.6488,9.6488,0,0,1-1.96-3.29639,12.01243,12.01243,0,0,1-.68018-4.08789,14.67117,14.67117,0,0,1,.44043-3.624,13.85456,13.85456,0,0,1,1.24756-3.22412,12.78059,12.78059,0,0,1,1.96045-2.70361,12.17249,12.17249,0,0,1,2.57568-2.07227A12.69864,12.69864,0,0,1,29.606,75.40137a12.85,12.85,0,0,1,3.52-.47168,10.10939,10.10939,0,0,1,4.12012.80811,9.04135,9.04135,0,0,1,3.104,2.21582,9.79127,9.79127,0,0,1,1.95215,3.312A12.04786,12.04786,0,0,1,42.98193,85.3457Zm-5.34375.12793a9.29846,9.29846,0,0,0-.34424-2.61621,5.8718,5.8718,0,0,0-1.00781-2.01562,4.51636,4.51636,0,0,0-1.624-1.29639,5.015,5.015,0,0,0-2.17578-.45605,6.06885,6.06885,0,0,0-2.86426.66406,6.29952,6.29952,0,0,0-2.15186,1.86426,8.76838,8.76838,0,0,0-1.35986,2.8877,13.84579,13.84579,0,0,0-.47217,3.73633,9.41673,9.41673,0,0,0,.33594,2.60791,5.85345,5.85345,0,0,0,.98389,2,4.41115,4.41115,0,0,0,1.60791,1.28809,5.05479,5.05479,0,0,0,2.19238.45605A6.02854,6.02854,0,0,0,35.79,92.08154a8.89226,8.89226,0,0,0,1.36816-2.87988A13.557,13.557,0,0,0,37.63818,85.47363Z" fill="#fff"/>
    <path d="M49.82178,75.20947a1.26039,1.26039,0,0,1,.416.1123,1.05131,1.05131,0,0,1,.32813.24756,2.35463,2.35463,0,0,1,.28809.416l8.17578,14.40039q.03223-.5603.09619-1.07227.06372-.512.11182-.96l1.56836-13.168h4.60791l-2.87988,23.312H59.814a2.5115,2.5115,0,0,1-1.00781-.17578,1.52371,1.52371,0,0,1-.688-.688l-8.144-14.38428q-.03223.44824-.07227.86426-.04028.416-.07178.78369L48.23,98.49756H43.62207l2.87988-23.312h2.752A5.6195,5.6195,0,0,1,49.82178,75.20947Z" fill="#fff"/>
    <path d="M82.1499,79.20166h-8.624l-.7041,5.63184h6.6084L78.918,88.70557H72.3418l-.70361,5.77588h8.688L79.814,98.49756H65.894l2.87988-23.312H82.66211Z" fill="#fff"/>
    <path d="M30.854,123.23779a7.72333,7.72333,0,0,0,3.2002-.64014l.44775-3.80811H32.51807a1.01982,1.01982,0,0,1-.688-.208.70253.70253,0,0,1-.23975-.56006l.35205-3.00781h7.77588L38.502,124.75732a12.18118,12.18118,0,0,1-3.86377,1.90381,14.10282,14.10282,0,0,1-2.208.44824,20.16046,20.16046,0,0,1-2.47217.14355,9.60766,9.60766,0,0,1-3.94385-.792,9.06211,9.06211,0,0,1-3.05615-2.18359,9.82237,9.82237,0,0,1-1.96777-3.2959,11.93524,11.93524,0,0,1-.69629-4.12793,15.06053,15.06053,0,0,1,.44043-3.688,13.56977,13.56977,0,0,1,1.25586-3.23975,12.77,12.77,0,0,1,1.96-2.688,12.29794,12.29794,0,0,1,2.54395-2.04834,12.16713,12.16713,0,0,1,3.01611-1.30371,13.1232,13.1232,0,0,1,6.08789-.18408,10.34925,10.34925,0,0,1,2.168.728,8.74159,8.74159,0,0,1,1.71191,1.05566,11.06274,11.06274,0,0,1,1.32813,1.24023l-1.6958,2.09619a1.662,1.662,0,0,1-1.29639.70361,1.62387,1.62387,0,0,1-.87988-.2876q-.57568-.36841-1.07178-.64844a6.8016,6.8016,0,0,0-1-.46387A6.08222,6.08222,0,0,0,33.79,107.8457a7.673,7.673,0,0,0-1.272-.09619,6.0086,6.0086,0,0,0-2.78369.64795,6.46758,6.46758,0,0,0-2.17627,1.82422,8.7201,8.7201,0,0,0-1.416,2.82373,12.3848,12.3848,0,0,0-.50391,3.63232,9.37552,9.37552,0,0,0,.376,2.75977,5.995,5.995,0,0,0,1.064,2.064,4.6444,4.6444,0,0,0,1.64795,1.28809A4.96784,4.96784,0,0,0,30.854,123.23779Z" fill="#fff"/>
    <path d="M57.3501,107.70166h-8.624l-.7041,5.63184h6.6084l-.51221,3.87207H47.542l-.70361,5.77588h8.688l-.51221,4.01563H41.09424l2.87988-23.31152H57.8623Z" fill="#fff"/>
    <path d="M76.26172,103.68555l-.54395,4.11182H69.79785l-2.36816,19.19971H62.24561L64.582,107.79736H58.62988l.51172-4.11182Z" fill="#fff"/>
    <path d="M89.70117,108.35742a2.03264,2.03264,0,0,1-.55176.56006,1.22031,1.22031,0,0,1-.66406.17627,1.34433,1.34433,0,0,1-.73584-.23779q-.36841-.2373-.82422-.52246a6.67262,6.67262,0,0,0-1.04785-.52246,3.73128,3.73128,0,0,0-1.39209-.2373,3.64532,3.64532,0,0,0-1.28809.208,2.54749,2.54749,0,0,0-.91992.5752,2.35907,2.35907,0,0,0-.55176.86328,3.093,3.093,0,0,0-.18408,1.08691,1.6165,1.6165,0,0,0,.35986,1.07129,3.26718,3.26718,0,0,0,.96.75928,9.6519,9.6519,0,0,0,1.35205.59961q.7522.27173,1.54395.59131a14.739,14.739,0,0,1,1.55225.73584,5.62984,5.62984,0,0,1,1.35986,1.03906,4.719,4.719,0,0,1,.96,1.50293,5.55668,5.55668,0,0,1,.35986,2.11035,8.9839,8.9839,0,0,1-.60791,3.30908,7.99421,7.99421,0,0,1-1.74414,2.70947,8.291,8.291,0,0,1-2.75977,1.83887,9.8455,9.8455,0,0,1-5.68018.45508,10.609,10.609,0,0,1-1.95166-.63184,9.964,9.964,0,0,1-1.73633-.96777,6.68631,6.68631,0,0,1-1.35986-1.248l1.856-2.43213a1.61394,1.61394,0,0,1,.54395-.44775,1.43435,1.43435,0,0,1,.67188-.17627,1.44973,1.44973,0,0,1,.87207.31445q.42407.31494.936.69385a6.79439,6.79439,0,0,0,1.19189.69336,3.97615,3.97615,0,0,0,1.67236.31445,3.04089,3.04089,0,0,0,2.248-.79248,3.18465,3.18465,0,0,0,.792-2.34619,1.87618,1.87618,0,0,0-.36035-1.18506,2.99813,2.99813,0,0,0-.94385-.78467,8.02049,8.02049,0,0,0-1.33594-.56836q-.7522-.24829-1.53613-.53613a13.10143,13.10143,0,0,1-1.53613-.68066,4.75425,4.75425,0,0,1-2.27979-2.57812,6.24376,6.24376,0,0,1-.35986-2.26562,7.8362,7.8362,0,0,1,.584-2.98682,7.74816,7.74816,0,0,1,1.67188-2.53809,8.06166,8.06166,0,0,1,2.64014-1.76123,9.3901,9.3901,0,0,1,5.416-.44873,9.00951,9.00951,0,0,1,1.752.57617,7.85384,7.85384,0,0,1,1.48779.87207,6.02059,6.02059,0,0,1,1.13623,1.0957Z" fill="#fff"/>
    <path d="M117.41309,126.99707h-4.03174a1.73129,1.73129,0,0,1-1.08008-.31152,1.24122,1.24122,0,0,1-.48828-.82422l-.71973-4.19189h-7.91992l-1.728,4.19189a1.74466,1.74466,0,0,1-.688.792,1.99305,1.99305,0,0,1-1.13623.34375h-4.0957l11.13574-23.31152h5.34424Zm-12.78369-8.87939h5.856l-1.13623-6.65625q-.14355-.8313-.312-1.688-.16772-.85547-.27979-1.56006-.12817.38452-.33594.87207-.20874.48853-.4082.95215-.2.46436-.38379.86377-.18457.40063-.26416.59229Z" fill="#fff"/>
    <path d="M41.3501,142.3457a14.62265,14.62265,0,0,1-.43213,3.60742,13.47259,13.47259,0,0,1-1.23193,3.168,12.08295,12.08295,0,0,1-4.50391,4.64844,12.36483,12.36483,0,0,1-3.08789,1.2793,13.51,13.51,0,0,1-3.51221.44824H20.19824l2.87988-23.31152h8.38379a10.48123,10.48123,0,0,1,4.12012.77539,9.07173,9.07173,0,0,1,3.1123,2.13672,9.39577,9.39577,0,0,1,1.96777,3.21582A11.51533,11.51533,0,0,1,41.3501,142.3457Zm-5.34375.12793a9.50372,9.50372,0,0,0-.32812-2.584,5.57682,5.57682,0,0,0-.97607-1.97656,4.4394,4.4394,0,0,0-1.5918-1.26367,4.981,4.981,0,0,0-2.16016-.44824H27.814l-1.856,15.28027h3.13623a6.42426,6.42426,0,0,0,2.87988-.63184,6.1458,6.1458,0,0,0,2.17578-1.80078,8.43919,8.43919,0,0,0,1.37646-2.83105A13.51159,13.51159,0,0,0,36.00635,142.47363Z" fill="#fff"/>
    <path d="M47.71777,155.49707h-5.248l2.84814-23.31152h5.248Z" fill="#fff"/>
    <path d="M57.6377,147.6416l-.96,7.85547H51.49365l2.84766-23.31152h7.7124a11.10443,11.10443,0,0,1,3.56006.50391,6.65554,6.65554,0,0,1,2.43164,1.3916,5.39047,5.39047,0,0,1,1.3999,2.09668,7.411,7.411,0,0,1,.44824,2.59961,10.3594,10.3594,0,0,1-.584,3.52832,7.4171,7.4171,0,0,1-1.78418,2.80762,8.32365,8.32365,0,0,1-3.04,1.85645,12.70787,12.70787,0,0,1-4.35156.67188Zm1.43994-11.56836-.94385,7.64844h2.51172a4.74675,4.74675,0,0,0,1.87988-.32812,3.08907,3.08907,0,0,0,1.23193-.92871,3.74683,3.74683,0,0,0,.68018-1.43164,7.51158,7.51158,0,0,0,.208-1.82422,4.13915,4.13915,0,0,0-.18408-1.26367,2.52334,2.52334,0,0,0-1.53564-1.63965,3.73172,3.73172,0,0,0-1.38428-.23242Z" fill="#fff"/>
    <path d="M76.10156,151.33691h7.83984l-.51221,4.16016H70.37354l2.87988-23.31152h5.21582Z" fill="#fff"/>
    <path d="M108.45313,142.3457a14.58363,14.58363,0,0,1-.43994,3.61523,13.90526,13.90526,0,0,1-1.248,3.2168,12.9354,12.9354,0,0,1-1.95166,2.70313,11.95352,11.95352,0,0,1-2.56836,2.07227,12.64206,12.64206,0,0,1-3.08789,1.32813,12.78942,12.78942,0,0,1-3.50391.47168,10.143,10.143,0,0,1-4.13623-.80762,9.164,9.164,0,0,1-3.11182-2.208,9.65124,9.65124,0,0,1-1.96-3.2959,12.01445,12.01445,0,0,1-.68018-4.08789,14.66545,14.66545,0,0,1,.44043-3.624,13.85836,13.85836,0,0,1,1.24756-3.22461,12.79,12.79,0,0,1,1.96045-2.70312,12.15724,12.15724,0,0,1,2.57568-2.07227,12.67972,12.67972,0,0,1,3.08789-1.32812,12.85,12.85,0,0,1,3.52-.47168,10.11737,10.11737,0,0,1,4.12012.80762,9.04782,9.04782,0,0,1,3.104,2.21582,9.7935,9.7935,0,0,1,1.95215,3.3125A12.04582,12.04582,0,0,1,108.45313,142.3457Zm-5.34375.12793a9.29846,9.29846,0,0,0-.34424-2.61621,5.86742,5.86742,0,0,0-1.00781-2.01562,4.51768,4.51768,0,0,0-1.624-1.29687,5.015,5.015,0,0,0-2.17578-.45605,6.06885,6.06885,0,0,0-2.86426.66406,6.31,6.31,0,0,0-2.15186,1.86426,8.76838,8.76838,0,0,0-1.35986,2.8877,13.84835,13.84835,0,0,0-.47217,3.73633,9.42033,9.42033,0,0,0,.33594,2.6084,5.85786,5.85786,0,0,0,.98389,2,4.41618,4.41618,0,0,0,1.60791,1.28809,5.05479,5.05479,0,0,0,2.19238.45605,6.02729,6.02729,0,0,0,5.03174-2.5127,8.89226,8.89226,0,0,0,1.36816-2.87988A13.55339,13.55339,0,0,0,103.10938,142.47363Z" fill="#fff"/>
    <path d="M122.24512,147.32129q.25562-.52734.53613-1.04.27979-.51123.584-1.02441l7.13574-12.27148a1.34147,1.34147,0,0,1,.80029-.67187,3.609,3.609,0,0,1,.92773-.12793h4.09619l-2.87988,23.31152h-4.57617l1.63184-13.56738q.04834-.43213.15234-.95215.10327-.52.23193-1.08008l-7.0083,12.03223a2.05088,2.05088,0,0,1-.832.80762,2.40851,2.40851,0,0,1-1.11963.26367h-.7041a2.03235,2.03235,0,0,1-1.064-.27148,1.42084,1.42084,0,0,1-.63184-.7998l-4.09619-12.06445q-.03223.54492-.05615,1.05566-.02417.5127-.07178.92871l-1.6001,13.64746h-4.60791l2.87988-23.31152h3.96777q.33618,0,.59229.01563a1.6625,1.6625,0,0,1,.45605.08789.83769.83769,0,0,1,.34375.23242,1.25361,1.25361,0,0,1,.24023.46387l4.0957,12.27148Q122.00513,146.26611,122.24512,147.32129Z" fill="#fff"/>
    <path d="M156.709,155.49707h-4.03125a1.7284,1.7284,0,0,1-1.08008-.31152,1.23748,1.23748,0,0,1-.48828-.82422l-.72021-4.19238h-7.91992l-1.728,4.19238a1.74466,1.74466,0,0,1-.688.792,1.99305,1.99305,0,0,1-1.13623.34375h-4.0957L145.957,132.18555h5.34375Zm-12.78369-8.87988h5.856l-1.13623-6.65625q-.14355-.83057-.312-1.6875-.16772-.85547-.27979-1.56055-.12817.38525-.33594.87207-.20874.48926-.4082.95215-.2.46436-.38379.86426-.18457.3999-.26416.5918Z" fill="#fff"/>
    <path d="M40.10205,183.998H36.07031a1.73129,1.73129,0,0,1-1.08008-.31152,1.24345,1.24345,0,0,1-.48828-.82422l-.71973-4.19238H25.8623l-1.728,4.19238a1.74466,1.74466,0,0,1-.688.792,1.99305,1.99305,0,0,1-1.13623.34375h-4.0957l11.13574-23.3125h5.34424Zm-12.78369-8.87988h5.856l-1.13623-6.65625q-.14355-.832-.312-1.6875-.16772-.85693-.27979-1.56055-.12817.38379-.33594.87207-.20874.48779-.4082.95215-.2.46436-.38379.86426-.18457.3999-.26416.5918Z" fill="#fff"/>
    <path d="M47.14209,179.83789h7.83984l-.51221,4.16016H41.41406l2.87988-23.3125h5.21582Z" fill="#fff"/>
    <path d="M79.49365,170.8457a14.59717,14.59717,0,0,1-.43994,3.61621,13.88059,13.88059,0,0,1-1.248,3.21582,12.94164,12.94164,0,0,1-1.95166,2.7041,11.98308,11.98308,0,0,1-2.56836,2.07227,12.69985,12.69985,0,0,1-6.5918,1.7998,10.15916,10.15916,0,0,1-4.13623-.80762,9.17731,9.17731,0,0,1-3.11182-2.208,9.65124,9.65124,0,0,1-1.96-3.2959,12.01849,12.01849,0,0,1-.68018-4.08789,14.66545,14.66545,0,0,1,.44043-3.624,13.85836,13.85836,0,0,1,1.24756-3.22461,12.7961,12.7961,0,0,1,1.96045-2.7041,12.15268,12.15268,0,0,1,2.57568-2.07129,12.68211,12.68211,0,0,1,3.08789-1.3291,12.85,12.85,0,0,1,3.52-.47168,10.10142,10.10142,0,0,1,4.12012.80859,9.03489,9.03489,0,0,1,3.104,2.21582,9.79848,9.79848,0,0,1,1.95215,3.31152A12.0499,12.0499,0,0,1,79.49365,170.8457Zm-5.34375.12793a9.28652,9.28652,0,0,0-.34424-2.61523,5.88111,5.88111,0,0,0-1.00781-2.0166,4.515,4.515,0,0,0-1.624-1.2959,5.015,5.015,0,0,0-2.17578-.45605,6.06885,6.06885,0,0,0-2.86426.66406,6.31,6.31,0,0,0-2.15186,1.86426,8.76838,8.76838,0,0,0-1.35986,2.8877,13.84835,13.84835,0,0,0-.47217,3.73633,9.41314,9.41314,0,0,0,.33594,2.60742,5.84027,5.84027,0,0,0,.98389,2,4.39613,4.39613,0,0,0,1.60791,1.28809,5.04076,5.04076,0,0,0,2.19238.45605,6.02313,6.02313,0,0,0,5.03174-2.51172,8.89226,8.89226,0,0,0,1.36816-2.87988A13.5556,13.5556,0,0,0,74.1499,170.97363Z" fill="#fff"/>
    <path d="M86.3335,160.71a1.24867,1.24867,0,0,1,.416.1123,1.04968,1.04968,0,0,1,.32813.24707,2.39165,2.39165,0,0,1,.28809.416l8.17578,14.40039q.03223-.55957.09619-1.07129.06372-.5127.11182-.96l1.56836-13.16895h4.60791L99.0459,183.998H96.32568a2.5115,2.5115,0,0,1-1.00781-.17578,1.52019,1.52019,0,0,1-.688-.68848L86.48584,168.75q-.03223.44824-.07227.86426c-.02686.27734-.05078.53809-.07178.78418L84.7417,183.998H80.13379l2.87988-23.3125h2.752A5.46315,5.46315,0,0,1,86.3335,160.71Z" fill="#fff"/>
    <path d="M118.66162,164.70215h-8.624l-.7041,5.63184h6.6084l-.51221,3.87207h-6.57617l-.70361,5.77637h8.688l-.51221,4.01563H102.40576l2.87988-23.3125h13.88818Z" fill="#fff"/>
    <path d="M118.66113,181.48633a2.65487,2.65487,0,0,1,.21631-1.07227,2.72873,2.72873,0,0,1,.5918-.86426,2.9247,2.9247,0,0,1,3.1123-.584,2.94822,2.94822,0,0,1,.896.584,2.65126,2.65126,0,0,1,.81592,1.93652,2.7128,2.7128,0,0,1-.21631,1.08008,2.63674,2.63674,0,0,1-.59961.87207,2.8032,2.8032,0,0,1-.896.5752,2.90726,2.90726,0,0,1-1.104.208,2.94709,2.94709,0,0,1-1.12012-.208,2.69963,2.69963,0,0,1-1.69629-2.52734Z" fill="#fff"/>
  </g>
</svg>
